<svg width="289" height="294" viewBox="0 0 289 294" fill="none" xmlns="http://www.w3.org/2000/svg">
<path fill-rule="evenodd" clip-rule="evenodd" d="M196.547 186.414C198.027 184.482 201.627 192.895 202.361 193.924L202.396 193.97C205.6 197.847 208.216 203.784 208.586 208.762C208.597 208.911 208.597 209.055 208.597 209.199C213.733 208.494 218.87 207.776 224.005 206.988C225.991 205.495 228.77 205.958 231.459 207.317C237.456 210.344 234.537 219.961 228.076 219.807C210.606 219.391 192.763 221.634 175.439 223.653C166.527 224.692 157.634 225.794 148.77 227.203C140.489 228.518 132.022 230.376 123.641 230.739C123.184 230.757 122.993 230.076 123.405 229.864C130.794 226.069 139.234 223.771 147.212 221.548C155.845 219.143 164.542 216.885 173.3 214.979C181.159 213.268 189.059 211.988 196.977 210.835C196.916 210.68 196.857 210.522 196.807 210.356C195.803 206.987 195.829 203.122 195.615 199.571L195.49 197.687C195.295 194.439 195.1 188.307 196.547 186.414ZM170.814 144.868C178.366 149.458 189.872 160.161 181.748 171.54C172.186 181.574 158.418 170.069 151.634 164.867C145.343 160.834 138.275 171.205 144.112 175.913C193.136 212.209 213.031 146.068 174.634 139.471C170.406 138.744 168.836 143.448 170.814 144.868ZM49.4013 104.468C61.9663 102.551 74.8373 102.331 87.5333 102.965C94.1343 103.294 100.728 103.784 107.306 104.436C110.74 104.777 114.17 105.159 117.594 105.588C120.05 105.896 123.842 107.302 126.176 106.662C133.308 104.709 140.079 111.458 138.112 118.599C136.161 125.685 127.801 127.554 122.423 123.298C119.873 122.399 117.308 121.547 114.728 120.751C114.531 121.564 114.242 122.368 113.834 123.145C113.376 124.015 112.935 124.891 112.517 125.78C112.607 125.638 111.916 127.295 111.897 127.343L111.344 128.786C110.381 131.274 109.303 133.633 106.688 134.923C103.093 136.695 97.4523 135.718 95.9993 131.49C93.7297 127.043 95.2318 120.831 96.5325 116.225L96.6333 115.871C80.9523 112.142 65.0113 109.346 49.4013 105.553C48.8913 105.429 48.8393 104.554 49.4013 104.468ZM235.894 87.741C236.71 86.108 238.56 86.101 239.661 87.635C242.108 91.0405 236.627 95.9179 234.341 98.1843L234.112 98.413C228.971 103.629 222.701 107.833 216.485 111.634C215.181 112.431 213.857 113.191 212.528 113.94C212.774 114.435 212.998 114.94 213.181 115.455C214.122 118.113 214.14 121.288 213.292 123.974C211.526 129.575 206.827 134.05 200.733 134.044C197.519 134.041 193.714 131.002 194.149 127.46C194.304 126.199 194.431 124.857 194.624 123.516C190.338 124.942 185.075 123.271 182.349 119.738C178.558 114.827 179.601 106.778 185.405 103.728C189.673 101.486 194.384 100.92 199.007 99.735C203.595 98.561 208.151 97.212 212.642 95.705C217.071 94.219 221.479 92.627 225.88 91.054C228.057 90.275 230.211 89.557 232.427 88.897C233.417 88.603 234.842 87.83 235.894 87.741Z" fill="black"/>
</svg>
