<svg width="289" height="294" viewBox="0 0 289 294" fill="none" xmlns="http://www.w3.org/2000/svg">
<path fill-rule="evenodd" clip-rule="evenodd" d="M94.3298 189.591C94.5398 189.397 94.8718 189.329 95.1248 189.488C99.4518 192.224 99.9638 201.425 100.013 206.739C101.803 207.205 103.571 207.735 105.243 208.105C108.793 208.89 112.363 209.576 115.926 210.298L118.597 210.849C127.523 212.73 136.616 214.122 145.712 214.819C154.54 215.495 163.624 215.742 172.427 214.605C176.207 214.116 179.965 213.3 183.618 212.211C187.936 210.923 191.375 208.788 195.391 206.918C205.445 202.235 213.871 215.958 204.195 221.98C195.889 227.147 184.557 229.01 174.969 229.81C165.169 230.627 155.407 229.73 145.725 228.18C135.258 226.503 125.006 223.928 115.079 220.194C110.881 218.615 106.819 216.702 102.853 214.609L101.774 214.034C101.115 213.68 100.428 213.321 99.7368 212.957C98.9938 219.584 96.8528 225.985 94.2658 232.138L94.2048 232.03C92.7898 236.884 87.6778 239.887 82.5918 237.743C76.6221 235.228 76.1686 228.626 79.6421 223.94L79.8078 223.722C83.8918 218.468 86.4508 211.95 88.6748 205.737C89.8158 202.552 90.8718 199.29 91.7878 196.032C92.4508 193.675 92.4748 191.304 94.3298 189.591ZM248.162 136.818C244.623 147.512 236.906 155.747 226.156 159.367C215.502 162.956 203.653 161.648 192.762 159.708C190.38 159.283 187.965 158.815 185.555 158.268C187.527 159.49 189.27 161.21 190.937 163.028C193.403 165.717 195.639 168.55 196.317 171.916C196.99 175.255 195.93 177.795 193.996 179.713C191.021 182.662 186.222 184.251 182.158 185.129C173.056 187.096 163.939 186.79 154.882 184.773C152.569 184.259 151.001 183.019 150.121 181.401C149.052 179.437 148.964 176.994 149.578 174.768C150.191 172.544 151.516 170.494 153.439 169.359C155.022 168.425 157.002 168.169 159.249 168.916C163.759 170.417 168.237 171.411 173.001 171.526C175.017 171.573 177.047 171.513 179.061 171.328C180.199 171.224 181.335 171.079 182.465 170.898C181.799 170.012 181.153 169.109 180.522 168.198C179.775 167.121 179.049 166.029 178.355 164.919C176.349 161.706 174.678 158.404 173.21 154.918C172.739 153.801 172.303 152.679 171.884 151.554C171.823 151.392 171.763 151.229 171.703 151.067C171.574 150.958 171.445 150.849 171.318 150.739C168.447 148.255 166.04 145.195 164.337 141.405C159.727 131.139 160.478 118.397 163.275 107.737C165.517 99.1929 170.465 91.2901 177.002 85.9212C178.143 84.0432 178.897 82.904 179.82 81.9446C183.577 78.0358 188.82 75.3996 193.936 73.796C205.362 70.2129 217.807 72.7836 227.493 79.6058C236.436 85.9048 243.437 95.3518 247.221 105.859C250.804 115.809 251.503 126.723 248.162 136.818ZM92.5218 71.8312C106.111 71.7152 119.937 75.7272 130.964 83.7562C141.514 91.4392 149.796 102.782 149.786 116.293C149.776 129.448 142.744 142.382 134.945 152.567C126.191 164.001 114.751 169.514 100.367 169.641C92.8901 169.708 85.3585 169.046 77.9353 168.137L73.9527 167.634C68.4683 166.927 62.927 166.09 57.7288 164.205C32.9848 155.23 32.2188 122.842 41.3828 102.139C48.4588 86.1552 66.3678 70.5672 84.2258 72.4382C86.9168 72.0612 89.6798 71.8562 92.5218 71.8312ZM115.473 87.0622C98.4558 79.4242 77.7798 81.7112 61.2728 89.8622C54.7338 96.9962 49.9548 105.987 48.0208 114.241C45.9558 123.052 46.2578 132.543 49.3628 141.083C53.1538 151.508 62.4888 154.09 72.5588 155.692L76.4684 156.306L78.1086 156.555C88.0033 158.031 98.8209 159.179 108.33 157.331C118.927 155.27 125.657 146.709 130.955 137.932L131.202 137.52C136.703 128.323 141.308 117.138 136.694 106.6C132.771 97.6432 124.202 90.9802 115.473 87.0622ZM215.913 89.7236C210.073 86.4876 203.412 85.8996 197.106 88.0656C194.393 88.9974 192.049 90.5076 189.776 92.2006L188.869 92.8866C186.074 95.0323 183.463 96.1191 181.366 99.0171L181.095 99.4056C180.037 100.986 178.186 101.618 176.5 101.408C174.535 106.825 173.724 112.683 173.708 118.45L173.71 119.214L173.72 119.993C173.846 126.81 175.035 135.149 180.398 139.718C185.291 143.884 192.698 144.884 199.311 145.464L204.408 145.889L205.763 145.992C212.733 146.476 220.371 146.311 226.213 142.185C231.301 138.591 233.701 132.491 234.323 126.468C235.794 112.239 228.592 96.7486 215.913 89.7236ZM88.795 91.0381C98.166 86.2541 109.423 87.4531 117.361 93.4491C116.656 93.5871 115.962 93.7631 115.27 94.1101C113.469 95.0131 112.351 96.8211 111.925 98.7451C111.445 100.92 112.572 102.979 114.719 103.665C116.587 104.261 118.802 104.534 120.537 103.399C121.446 102.805 122.081 102.022 122.498 101.036L122.557 100.891L122.63 100.785L122.658 100.735C122.664 100.716 122.632 100.752 122.58 100.833C122.633 100.71 122.682 100.587 122.731 100.462C122.804 100.313 122.874 100.163 122.931 100.008C123.032 99.9211 123.124 99.8241 123.217 99.7271C124.659 101.946 125.791 104.452 126.51 107.24C131.124 125.135 112.204 143.706 95.301 145.564C88.913 146.266 83.088 144.745 78.254 141.747C78.298 141.688 78.347 141.635 78.387 141.573C80.329 141.922 82.647 141.053 83.352 138.887C85.151 133.362 83.306 126.899 77.286 125.094C73.412 123.932 69.448 125.216 66.679 127.864C64.585 122.739 63.836 116.969 64.827 111.19C66.225 103.037 71.143 95.6901 78.797 92.2981C82.524 90.6451 85.736 90.2981 88.795 91.0381ZM187.482 102.079L187.767 101.63C190.663 97.1733 196.198 91.7069 201.935 93.2099C202.741 93.4209 203.531 93.7609 204.243 94.2019C207.395 93.7739 210.695 94.4899 213.405 96.1569L213.331 96.3439C213.319 96.3752 213.309 96.4069 213.301 96.4399C213.054 97.5239 213.198 98.5259 213.704 99.5219C214.253 100.601 215.036 101.624 216.096 102.243C216.823 102.667 217.678 102.89 218.516 102.873C219.745 102.851 220.827 102.31 221.715 101.484C222.198 101.036 222.535 100.379 222.721 99.7029C223.159 100.123 223.584 100.591 223.989 101.122C230.64 109.868 229.721 123.922 221.918 131.718C221.603 132.032 221.268 132.316 220.937 132.606C217.769 136.967 212.886 139.927 207.021 140.526C201.591 141.081 196.161 139.475 191.997 136.183C192.332 136.005 192.645 135.774 192.915 135.468C193.626 134.663 194.211 133.869 194.643 132.886C194.751 132.639 194.856 132.389 194.955 132.138L195.1 131.759C195.125 131.689 195.347 131.05 195.288 131.162L195.274 131.188L195.353 131.004C196.098 129.144 195.797 127.017 194.028 125.85L193.833 125.729C193.255 125.392 192.539 125.233 191.814 125.231C190.008 123.02 187.32 122.513 184.797 123.159L184.708 122.445C184.695 122.326 184.683 122.207 184.675 122.087C182.72 115.606 183.663 108.241 187.482 102.079ZM100.685 36.8289L101.334 36.7279C106.243 36.0186 109.58 36.8353 112.771 41.0299C114.292 43.0289 113.823 46.0479 112.771 48.0909C109.373 54.6919 100.025 53.3269 93.7291 54.6379C87.5821 55.9169 81.4501 57.6579 75.6981 60.1919C69.8291 62.7779 64.3201 65.8369 58.9481 69.3299C54.0891 72.4909 49.6821 77.2419 44.1311 79.0809C43.8811 79.1639 43.5801 78.9399 43.5952 78.6749C43.9911 72.3619 49.2641 66.5669 53.3481 62.0709C58.0721 56.8719 63.8171 52.2559 69.8001 48.5859C75.9741 44.7999 82.6481 41.6829 89.5581 39.5089C93.1971 38.3639 96.9201 37.4539 100.685 36.8289ZM175.461 45.4007C181.641 36.3637 197.004 38.0967 206.069 40.5117C217.435 43.5377 229.751 49.6587 237.721 58.5187C244.86 66.4557 234.179 76.7677 226.151 70.0887L224.009 68.3121L222.638 67.186C216.475 62.1524 210.372 57.5969 202.861 54.2407C194.055 50.3077 185.132 48.3917 175.825 46.2957C175.459 46.2137 175.244 45.7177 175.461 45.4007Z" fill="black"/>
</svg>
