<svg width="289" height="294" viewBox="0 0 289 294" fill="none" xmlns="http://www.w3.org/2000/svg">
<path fill-rule="evenodd" clip-rule="evenodd" d="M181.735 213.311C182.429 213.123 183.04 214.055 182.465 214.565C180.111 216.654 178.616 220.546 176.898 223.199C175.264 225.723 173.689 228.221 172.252 230.863C170.641 233.824 169.085 236.774 167.831 239.907L167.583 240.539C167.959 241.432 168.252 242.314 168.469 242.892L168.531 243.057C170.673 248.527 166.177 254.606 161.106 256.135C152.432 258.75 144.99 251.627 144.783 243.156C144.62 236.492 149.137 230.554 153.727 226.149C157.742 222.296 162.238 219.016 167.267 216.613C169.486 215.554 171.791 214.668 174.2 214.154C176.664 213.629 179.322 213.963 181.735 213.311ZM165.387 237.461C166.023 237.761 166.566 238.494 167.023 239.35C166.795 238.624 166.324 237.902 165.387 237.461ZM170.814 144.867C178.366 149.457 189.872 160.16 181.748 171.54C172.186 181.573 158.418 170.069 151.634 164.866C145.343 160.834 138.275 171.205 144.112 175.913C193.136 212.208 213.031 146.068 174.634 139.471C170.406 138.744 168.836 143.447 170.814 144.867ZM108.741 100.792L110.075 100.681C115.862 100.17 121.722 99.3931 127.429 100.702C135.096 102.462 134.534 113.616 127.429 115.667C121.167 117.474 114.228 116.692 107.764 116.754C106.747 116.764 105.732 116.79 104.716 116.807C104.516 119.224 103.723 121.308 102.509 123.39C101.639 124.884 100.529 126.303 99.4371 127.63C96.8411 130.784 90.7181 130.713 88.0981 127.63C86.1601 125.348 84.6171 122.723 84.5921 119.634C84.5861 118.843 84.6821 118.003 84.8711 117.177L81.343 117.239C72.7079 117.371 64.0069 117.312 55.5281 115.94C52.5121 116.564 50.0441 111.122 54.2071 109.493C65.5241 105.067 78.1671 103.764 90.1761 102.435C96.3471 101.751 102.552 101.28 108.741 100.792ZM205.153 96.2187L205.46 96.188C212.949 95.421 221.204 94.093 228.708 94.857C239.912 95.996 239.893 111.142 228.708 112.275C224.602 112.691 220.276 112.489 215.962 112.091C218.167 116.769 215.551 122.356 210.238 123.07C205.301 123.733 200.184 118.935 201.804 113.789L201.879 113.562C202.195 112.669 202.479 111.671 202.816 110.686L201.03 110.535C195.689 110.063 188.276 109.099 186.31 104.882C185.717 103.611 185.854 102.431 186.767 101.345C190.511 96.8887 199.74 96.7421 205.153 96.2187ZM125.517 61.5406C130.937 59.5716 136.57 64.1796 137.273 69.3726C138.082 75.3569 133.766 79.2969 128.295 80.0116L128.021 80.0446C115.945 81.3746 103.96 83.8066 91.8679 85.1816C86.376 85.8053 80.8429 86.2157 75.3143 86.3633L71.3632 86.4521C66.5216 86.5745 61.3287 86.6849 56.8589 85.0176L56.8759 84.9876C55.6889 84.6436 55.1429 82.9316 56.4639 81.9956C61.2229 78.6306 67.6379 77.3586 73.1779 75.7596C78.7479 74.1506 84.3589 72.6676 89.9849 71.2746C101.799 68.3526 114.071 65.6986 125.517 61.5406ZM175.503 62.9395C176.939 55.3685 187.664 54.5565 191.603 60.0655C194.149 60.9395 197.882 61.8515 200.195 62.5375C204.225 63.7325 208.258 64.9205 212.3 66.0715C220.67 68.4555 228.838 71.4775 237.067 74.2945C237.915 74.5855 237.682 75.6615 236.867 75.7685C225.382 77.2633 214.089 77.959 202.534 77.4796L200.165 77.3729C189.983 76.9762 172.698 77.733 175.503 62.9395Z" fill="black"/>
</svg>
