<svg width="289" height="294" viewBox="0 0 289 294" fill="none" xmlns="http://www.w3.org/2000/svg">
<path fill-rule="evenodd" clip-rule="evenodd" d="M171.042 240.658C163.675 242.792 155.768 242.983 148.259 240.779C141.448 238.78 134.455 234.382 129.442 228.561C124.989 223.391 122.105 217.107 122.219 210.4C122.232 209.634 122.506 208.995 122.927 208.499C123.38 207.964 124.014 207.597 124.693 207.438C125.391 207.274 126.128 207.333 126.757 207.618C127.326 207.876 127.813 208.315 128.118 208.956C128.888 209.968 129.655 210.965 130.426 211.935C136.62 219.583 142.618 225.299 151.932 227.349C156.985 228.461 162.032 227.968 166.663 226.271C171.62 224.454 176.102 221.259 179.613 217.171C181.2 215.323 183.073 214.569 184.905 214.556C186.982 214.542 189.034 215.507 190.579 217.049C192.099 218.564 193.116 220.624 193.209 222.778C193.29 224.669 192.673 226.644 191.032 228.406C185.626 234.211 178.621 238.463 171.042 240.658ZM170.814 144.867C178.366 149.457 189.872 160.16 181.748 171.539C172.186 181.572 158.418 170.068 151.634 164.865C145.343 160.833 138.275 171.204 144.112 175.912C193.136 212.207 213.031 146.067 174.634 139.47C170.406 138.743 168.836 143.447 170.814 144.867ZM100.175 124.669C97.7479 123.117 94.8928 122.585 91.7287 124.024C89.256 125.148 84.9192 128.897 81.9011 133.825C79.8363 137.196 78.3721 141.151 78.6769 145.27C78.7477 146.227 78.3942 146.932 77.8366 147.454C77.3962 147.866 76.7601 148.169 76.013 148.263C75.3786 148.344 74.6686 148.271 74.0913 148.091C72.9931 147.748 72.4119 147.036 72.1929 146.454C70.0797 140.842 70.9901 134.579 73.3585 128.929C76.5547 121.304 82.3592 114.917 86.1622 112.858C92.6698 109.333 100.347 109.171 106.864 112.762C112.411 115.818 115.88 120.753 119.33 125.783C120.063 126.852 120.791 127.913 121.544 128.956C123.051 131.046 123.201 133.118 122.617 134.895C121.971 136.864 120.321 138.525 118.259 139.394C116.353 140.198 114.141 140.311 112.183 139.485C110.529 138.788 109.012 137.428 108.051 135.121C106.434 131.236 103.739 126.949 100.175 124.669ZM223.441 133.314C221.779 134.18 220.478 134.441 218.634 133.889C217.615 133.582 216.607 132.995 215.818 132.206C215.036 131.424 214.472 130.452 214.252 129.373C213.713 126.711 212.256 124.219 210.181 122.594C208.406 121.206 206.167 120.47 203.683 120.885C201.002 121.332 198.449 123.051 196.69 125.078C196.102 125.756 195.641 126.526 195.178 127.291C194.311 128.722 193.469 130.052 192.274 131.103C191.821 131.502 191.138 131.779 190.477 131.779C190.208 131.779 189.935 131.736 189.676 131.655C187.008 128.977 186.495 126.946 186.581 124.931C186.671 122.818 187.504 120.679 188.85 118.683C192.007 114.001 198.003 110.162 202.048 109.293C207.589 108.102 213.091 109.531 217.503 112.626C222.042 115.81 225.405 120.753 226.454 126.325C226.706 127.666 226.599 129.115 226.088 130.37C225.589 131.597 224.719 132.648 223.441 133.314ZM112.394 74.752C109.069 77.9915 105.134 78.4933 101.153 78.9396C98.9405 79.1899 97.1746 79.3917 95.4369 79.7838C90.6605 80.862 85.9393 82.4858 81.6319 84.8244C77.1292 87.2692 72.2224 90.2176 68.6922 93.9947C67.8528 94.8935 67.0615 95.8366 66.2691 96.7818C65.5465 97.6437 64.8505 98.4735 64.1169 99.2735C63.2745 100.192 62.4745 101.156 61.6787 102.116C61.1867 102.927 61.0895 103.126 60.9904 103.334C60.8413 103.645 60.6679 103.994 60.4698 104.369C60.1985 104.882 59.8807 105.443 59.5478 105.952C58.9941 106.882 58.697 107.138 58.4402 107.253C58.0142 107.443 57.6101 107.536 57.2182 107.485C56.8506 107.438 56.5044 107.261 56.1624 106.972C54.4554 105.53 53.9519 103.163 54.0035 100.651C54.0818 96.8378 55.4881 92.6164 56.7845 90.0214C59.7989 83.9917 63.9794 77.7235 69.0062 73.2232C74.7422 68.0862 81.0177 64.1973 88.2256 61.5175C92.705 59.8516 97.8913 58.3225 102.771 58.5157C106.284 58.6547 109.637 59.6989 112.407 62.3064C114.107 63.9071 114.923 66.184 114.923 68.4592C114.923 70.7797 114.076 73.114 112.394 74.752ZM230.203 104.417C229.991 104.763 229.699 105.002 229.373 105.146C229.032 105.296 228.651 105.339 228.285 105.278C227.921 105.216 227.575 105.051 227.3 104.799C227.037 104.557 226.837 104.237 226.747 103.844C224.54 94.1484 220.253 86.9348 211.104 82.283C206.604 79.9947 201.429 78.5407 196.53 77.3815C195.106 77.0446 193.602 76.8263 192.087 76.6051C187.339 75.9119 182.557 75.118 179.462 71.2802C177.597 68.9685 176.814 66.012 177.256 63.3082C177.673 60.7624 179.161 58.4281 181.865 57.0292C188.597 53.5483 196.964 56.964 203.763 59.8737C204.267 60.0896 204.762 60.3015 205.246 60.5059C211.895 63.3123 217.959 67.0168 222.944 72.3145C226.899 76.5174 230.563 82.7306 232.039 89.1222C233.267 94.4399 232.978 99.8685 230.203 104.417Z" fill="black"/>
</svg>
