<svg width="289" height="294" viewBox="0 0 289 294" fill="none" xmlns="http://www.w3.org/2000/svg">
<path fill-rule="evenodd" clip-rule="evenodd" d="M166.944 221.852C168.478 219.185 172.01 216.714 175.242 217.093C189.721 218.791 189.696 236.345 184.105 246.593C179.148 255.68 168.889 261.014 158.621 260.235C147.834 259.416 138.643 253.074 134.598 242.983C131.923 236.308 130.687 223.985 137.803 219.5C137.935 219.416 138.153 219.437 138.258 219.558C141.67 223.527 141.804 229.486 144.791 233.905C147.569 238.015 151.885 241.409 156.941 241.933C160.717 242.325 164.537 240.963 166.014 237.573C166.813 235.739 166.722 234.744 166.422 233.482L166.149 232.385C165.203 228.544 164.778 225.619 166.944 221.852ZM170.814 144.867C178.366 149.457 189.872 160.16 181.748 171.54C172.186 181.573 158.419 170.069 151.634 164.866C145.343 160.834 138.275 171.205 144.112 175.913C193.136 212.208 213.031 146.067 174.634 139.47C170.406 138.744 168.836 143.447 170.814 144.867ZM91.0715 113.393C95.7065 106.439 106.287 107.463 108.84 115.715C110.223 120.185 108.313 124.203 108.412 128.667C108.495 132.438 108.248 136.64 107.092 140.292C104.456 148.62 96.9655 154.502 88.1045 154.258C79.2725 154.015 71.4935 148.425 67.7945 140.552C64.0825 132.649 64.8685 124.47 67.5785 116.434C67.7085 116.048 68.2145 115.861 68.5195 116.186C71.7229 119.59 74.0679 123.184 76.4943 126.996L78.981 130.903C80.8813 133.845 83.6431 137.603 87.1915 137.367L87.7239 137.315C88.71 137.23 88.5589 137.426 89.3195 136.082C89.6715 135.46 89.6075 134.304 89.7775 133.57L89.8365 133.322L89.8044 133.188C89.7293 132.833 89.6548 132.163 89.5943 131L89.5815 130.744C89.3245 125.307 87.7875 118.32 91.0715 113.393ZM208.563 118.022C207.732 109.128 220.236 107.153 224.393 113.734C226.561 117.166 227.193 121.477 227.672 125.562L227.896 127.5C228.388 131.695 228.583 136.059 226.762 139.972C223.894 146.135 217.657 149.393 210.929 148.877C204.504 148.383 198.642 144.658 195.552 139.003C192.797 133.957 190.058 124.105 193.404 118.842C193.606 118.523 194.01 118.482 194.287 118.728C197.449 121.535 197.964 126.655 199.844 130.312C201.783 134.084 204.724 137.76 209.181 138.333C213.445 138.881 215.074 136.552 213.986 132.487C212.583 127.239 209.091 123.669 208.563 118.022ZM94.4489 60.516L96.4938 59.7328C103.5 57.0862 113.119 54.027 118.815 59.724C122.329 63.237 122.998 68.412 120.49 72.699C117.451 77.892 112 78.02 106.736 78.785C100.749 79.655 94.6599 81.309 89.0859 83.667C82.8069 86.324 76.9799 89.636 71.2709 93.335C65.8449 96.85 60.4379 102.595 53.9429 103.678C53.6779 103.722 53.3769 103.608 53.3079 103.317C51.8329 96.967 55.9319 90.718 59.5899 85.764C64.0159 79.766 69.3789 74.843 75.3729 70.429C81.1579 66.168 87.7679 63.089 94.4489 60.516ZM221.716 83.0926L222.341 82.9832C226.589 82.2759 230.439 82.4388 233.641 85.8036C236.085 88.3706 237.027 91.6976 235.862 95.0916C234.787 98.2226 232.383 101.404 228.894 102.06C217.115 104.276 204.068 103.91 192.23 102.232C186.814 101.463 181.349 100.524 176.074 99.0416L173.647 98.338C169.242 97.08 164.2 95.7657 161.001 92.5266C159.851 91.3626 160.514 89.6966 161.89 89.1576C167.472 86.9716 175.123 88.1346 181.075 87.9636C187.999 87.7656 194.934 87.2466 201.825 86.5316C208.559 85.8316 215.075 84.3106 221.716 83.0926Z" fill="black"/>
</svg>
