<svg width="289" height="294" viewBox="0 0 289 294" fill="none" xmlns="http://www.w3.org/2000/svg">
<path fill-rule="evenodd" clip-rule="evenodd" d="M190.321 203.917C190.62 204.244 189.961 204.684 189.632 204.446C185.823 201.685 179.823 203.252 176.146 204.502C175.25 233.379 175.298 248.159 176.289 248.843C177.776 249.87 198.733 249.26 198.733 251.83C198.733 260.231 186.13 263.385 179.289 262.885C168.518 262.1 157.417 260.564 146.661 261.808C135.905 263.052 113.055 269.916 101.359 260.43C87.4088 249.116 89.295 230.522 100.902 218.383C108.219 210.732 118.985 206.141 129.601 202.74C145.136 197.763 181.748 194.55 190.321 203.917ZM161.668 235.717C156.035 237.91 128.031 247.159 121.377 248.843C129.154 248.285 155.707 247.668 161.668 244.784C162.337 242.083 162.764 235.29 161.668 235.717ZM165.944 205.691C150.701 208.167 117.784 219.331 113.055 225.273C120.241 224.143 160.332 219.331 164.855 219.331C165.512 215.833 165.077 209.7 165.944 205.691ZM170.814 137.867C178.366 142.457 189.872 153.16 181.748 164.54C172.186 174.573 158.419 163.069 151.634 157.866C145.344 153.834 138.276 164.205 144.112 168.913C193.136 205.208 213.031 139.068 174.634 132.471C170.406 131.744 168.836 136.447 170.814 137.867ZM187.557 70.8902C191.99 70.8539 194.579 73.7309 197.903 76.2929C201.326 78.9319 205.453 81.0369 209.454 82.6489C213.626 84.3279 218.086 85.6609 222.478 86.6119C227.031 87.5959 231.22 87.1349 235.74 87.9679C247.722 90.1769 244.886 110.156 232.871 109.168C222.057 108.279 210.448 101.635 202.247 94.7459C198.328 91.4546 195.02 87.6823 191.801 83.74L191.198 82.9989C188.34 79.4729 185.671 75.8639 187.105 71.2349C187.167 71.0349 187.345 70.8929 187.557 70.8902ZM87.6162 129.199C87.6302 122.822 91.3442 108.262 100.524 108.262C106.259 108.262 109.741 118.171 110.344 128.386L110.365 128.802C110.631 135.153 108.888 149.034 100.524 149.034C92.0718 149.034 87.7044 135.887 87.6175 129.424L87.6162 129.199ZM222.774 129.199C222.76 122.822 219.046 108.262 209.866 108.262C204.274 108.262 200.825 117.682 200.097 127.62L200.046 128.386C199.684 134.522 201.314 149.034 209.866 149.034C218.318 149.034 222.686 135.887 222.773 129.424L222.774 129.199ZM117.658 71.8419C123.383 69.3709 129.944 70.0729 133.391 75.9669C136.654 81.5449 134.433 88.2679 129.265 91.6999C124.19 95.0711 117.377 96.9042 111.541 98.8322L110.897 99.0469C105.241 100.95 99.5812 102.506 93.7392 103.722C88.2801 104.858 82.7797 105.7 77.2477 106.371L75.5872 106.567C71.2722 107.065 65.2532 108.742 61.3692 106.286C61.0242 106.069 60.8912 105.62 61.0992 105.26C63.3602 101.345 69.3622 99.7849 73.2132 97.8019C78.1582 95.2539 83.0322 92.5409 87.8622 89.7819C92.7452 86.9919 97.6152 84.1559 102.446 81.2759C107.464 78.2849 112.322 74.1439 117.658 71.8419Z" fill="black"/>
</svg>
