<svg width="289" height="294" viewBox="0 0 289 294" fill="none" xmlns="http://www.w3.org/2000/svg">
<path fill-rule="evenodd" clip-rule="evenodd" d="M166.69 208.433C178.561 208.433 183.588 210.363 191.311 214.901C199.034 219.439 207.29 225.288 209.243 234.05C211.065 242.214 207.48 250.169 199.545 253.283C195.107 255.026 143.968 259.106 135.945 259.639C127.923 260.172 120.267 259.514 115.115 254.171C101.804 240.366 120.289 222.468 132.101 215.859C142.648 209.955 154.819 208.433 166.69 208.433ZM163.945 217.743C155.016 217.743 140.387 224.274 140.387 227.454C140.387 230.634 183.022 227.477 183.936 224.757C184.85 222.037 172.874 217.743 163.945 217.743ZM170.814 144.867C178.365 149.457 189.871 160.16 181.748 171.54C172.186 181.573 158.418 170.069 151.634 164.866C145.343 160.834 138.275 171.204 144.112 175.913C193.136 212.208 213.03 146.067 174.633 139.47C170.406 138.743 168.836 143.447 170.814 144.867ZM85.5413 103.266C98.4033 93.7705 117.643 101.079 120.813 115.936C123.016 117.095 124.215 118.938 124.476 121.636L124.541 122.311C124.852 125.516 122 128.55 119.149 129.395C115.94 130.345 113.4 129.854 110.421 128.491C107.566 127.184 106.572 123.476 107.091 120.655L107.137 120.422C107.9 116.921 104.898 113.529 101.877 112.142C98.4683 110.577 94.6433 111.557 91.6793 113.631C88.3883 115.932 85.6513 119.868 84.7253 123.79L84.6333 124.198C83.9029 127.583 83.3542 133.936 86.6393 135.88C87.2213 136.223 86.8063 137.011 86.2053 136.907C79.0673 135.686 74.8163 131.392 74.7726 123.711C74.7273 115.577 79.0963 108.024 85.5413 103.266ZM203.98 100.564C216.825 96.0081 232.889 108.247 227.941 122.383C224.692 131.664 212.126 127.944 213.296 118.641L213.336 118.357C214.081 113.517 210.415 111.234 205.921 112.822C199.26 115.177 195.668 125.643 198.789 131.749C199.172 132.499 198.101 133.134 197.655 132.411L197.227 131.724C193.742 126.174 190.563 122.077 191.708 114.987C192.762 108.452 197.763 102.768 203.98 100.564ZM177.928 66.9177C177.895 66.2927 178.553 65.8717 179.115 66.0127C183.681 67.1617 187.814 70.4817 191.972 72.6357C196.51 74.9857 201.158 76.8847 206.086 78.2767C210.888 79.6327 215.74 80.3087 220.732 80.2667C226.133 80.2217 231.419 78.1947 236.716 78.3617C244.68 78.6127 248.841 90.1927 240.998 94.1727C229.578 99.9657 212.641 95.7567 201.533 90.9407C192.592 87.0637 178.51 77.9027 177.928 66.9177ZM119.921 69.5653C124.087 64.2013 132.516 63.8793 136.215 70.1993C140.036 76.7293 135.444 83.2763 128.951 84.6273C117.102 89.9243 104.966 93.9783 92.0236 95.6593L90.2707 95.8801C79.0071 97.2504 64.7919 97.9978 54.6136 92.8023C53.6166 92.2923 53.9186 90.7733 54.9166 90.4883C60.6546 88.8473 67.0806 88.8513 72.9816 87.7743C78.5946 86.7513 84.1616 85.6193 89.6276 83.9603C100.427 80.6813 110.659 75.9953 119.921 69.5653Z" fill="black"/>
</svg>
