<svg width="289" height="294" viewBox="0 0 289 294" fill="none" xmlns="http://www.w3.org/2000/svg">
<path fill-rule="evenodd" clip-rule="evenodd" d="M190.581 220.322C187.281 224.637 181.306 227.942 174.614 229.522C168.238 231.028 161.191 230.966 155.109 228.649L154.587 228.441C150.04 226.553 145.675 222.739 144.017 218.76C143.358 217.178 143.135 215.569 143.586 214.069C143.992 212.719 144.943 211.476 146.527 210.409C147.025 210.074 147.692 210.05 148.327 210.162C149.116 210.301 149.893 210.67 150.362 211.168C152.964 213.935 156.739 216.632 161.207 216.586C164.655 216.551 167.47 215.19 170.2 213.651L172.119 212.553C173.97 211.496 175.847 210.504 177.971 210.051C181.773 209.239 186.384 210.722 189.194 213.17C190.419 214.237 191.309 215.491 191.551 216.843C191.755 217.977 191.469 219.161 190.581 220.322ZM170.814 144.867C178.366 149.457 189.872 160.16 181.748 171.539C172.186 181.573 158.419 170.069 151.634 164.866C145.344 160.834 138.276 171.204 144.112 175.913C193.136 212.208 213.031 146.067 174.634 139.47C170.406 138.743 168.836 143.447 170.814 144.867ZM85.6232 74.3211L87.7926 73.7263L90.0047 73.1292L91.5005 72.7337C101.775 70.0444 113.108 67.6776 123.297 68.8331C127.013 69.2551 130.029 71.3461 130.555 75.2391C130.998 78.5241 128.875 82.7621 125.262 83.3461C113.295 85.2821 101.044 84.6541 89.0222 86.6501C83.0352 87.6431 77.0942 88.8761 71.1302 89.9871C66.5952 90.8331 61.9092 91.1301 57.3352 91.8141L58.3862 91.9601C58.7542 92.0101 58.6622 92.6291 58.2992 92.6041C56.7915 92.4536 55.2816 92.4302 53.7694 92.5359L53.1212 92.5891C52.1342 92.7281 51.5522 91.5501 52.4322 90.9521C58.0052 87.1711 62.7342 83.0731 68.9742 80.2861C74.3712 77.8761 79.9262 75.8891 85.6232 74.3211ZM179.162 68.5223C187.062 60.5363 203.862 63.6053 213.26 67.2583C218.624 69.3443 223.724 71.9813 227.972 75.9263L228.386 76.3144L229.024 76.9278C231.892 79.7352 235.089 83.5982 234.634 87.6453C234.565 88.2623 234.229 88.9673 233.532 89.0913C229.768 89.7583 226.071 87.7723 222.595 86.5773L220.293 85.7873C216.836 84.6098 213.357 83.4847 209.793 82.6723C205.361 81.6643 200.84 81.0813 196.29 81.1393C191.691 81.1993 186.751 82.4973 182.37 80.6713C177.484 78.6363 174.951 72.7803 179.162 68.5223ZM101.116 132.93C99.1005 134.988 96.4385 136.15 93.0316 135.459C90.3694 134.919 85.3005 132.242 81.2512 128.12C78.481 125.3 76.1647 121.775 75.535 117.693C75.3888 116.745 74.8857 116.137 74.225 115.754C73.7033 115.452 73.0154 115.3 72.2661 115.376C71.6299 115.44 70.9544 115.671 70.4324 115.976C69.4395 116.557 69.0334 117.382 68.9509 117.998C68.1543 123.942 70.4501 129.839 74.0288 134.812C78.8584 141.522 85.951 146.44 90.1197 147.591C97.2534 149.562 104.77 147.993 110.312 143.028C114.744 139.058 117.016 133.886 119.124 128.567L119.53 127.536C120.004 126.329 120.475 125.131 120.973 123.946C121.972 121.571 121.652 119.518 120.683 117.918C119.61 116.145 117.63 114.898 115.425 114.514C113.387 114.16 111.205 114.548 109.484 115.792C108.029 116.844 106.856 118.51 106.44 120.974C105.762 124.981 104.19 129.578 101.418 132.611L101.116 132.93ZM223.441 109.74C221.779 108.874 220.478 108.613 218.634 109.166C217.615 109.472 216.607 110.059 215.818 110.848C215.036 111.63 214.472 112.602 214.253 113.681C213.713 116.343 212.257 118.835 210.181 120.46C208.407 121.849 206.167 122.585 203.683 122.169C201.003 121.722 198.449 120.003 196.69 117.976C196.2 117.411 195.799 116.782 195.41 116.145L195.178 115.763C194.312 114.332 193.469 113.002 192.274 111.951C191.821 111.552 191.138 111.275 190.477 111.275C190.208 111.275 189.936 111.318 189.676 111.399C187.008 114.077 186.495 116.108 186.581 118.123C186.671 120.236 187.504 122.375 188.85 124.371C192.008 129.053 198.003 132.892 202.049 133.761C207.589 134.952 213.091 133.523 217.503 130.428C222.042 127.244 225.406 122.301 226.454 116.73C226.707 115.388 226.599 113.94 226.088 112.684C225.589 111.457 224.719 110.406 223.441 109.74Z" fill="black"/>
</svg>
