<svg width="289" height="294" viewBox="0 0 289 294" fill="none" xmlns="http://www.w3.org/2000/svg">
<path fill-rule="evenodd" clip-rule="evenodd" d="M177.534 205.837C180.965 199.783 191.203 200.767 192.768 207.828C195.943 222.142 178.874 235.36 165.91 235.69C153.027 236.017 138.572 225.052 140.437 211.202C140.898 207.776 145.474 208.192 147.034 210.34L147.639 211.164C151.876 216.856 157.467 222.748 165.331 221.36C168.59 220.786 171.55 218.75 173.52 216.129C175.896 212.966 175.635 209.189 177.534 205.837ZM95.6148 101.116C97.3608 100.635 99.1228 100.821 100.67 101.479C104.124 102.112 107.009 104.992 108.023 108.28C108.103 108.565 108.192 108.846 108.291 109.124L108.445 109.539L108.031 108.485C108.222 109.523 109.067 110.614 109.371 111.656C109.745 112.937 109.836 114.392 109.71 115.802C110.808 115.813 111.906 115.85 113.002 115.945L114.061 116.04C119.984 116.591 126.486 117.6 129.998 122.718C131.97 125.594 130.119 130.772 126.496 131.326C120.919 132.179 116.115 129.093 110.557 128.475C105.303 127.89 99.8048 128.225 94.6188 129.174C83.9119 131.132 74.0732 135.472 63.6393 138.195L62.2188 138.555L62.2208 138.548C60.4328 138.98 58.4028 136.494 60.1718 135.04C68.5308 128.173 79.2328 122.608 89.7758 119.219C88.2398 116.776 87.7648 113.558 88.8148 110.935C88.9774 110.392 89.1792 109.863 89.392 109.336L89.8358 108.252C89.8788 107.741 89.9768 107.236 90.1188 106.741L90.1418 106.59L90.1548 106.599C90.9398 104.048 92.9898 101.84 95.6148 101.116ZM202.26 101.511C204.546 99.2239 207.758 99.5619 210.144 101.362L210.461 101.61C212.71 102.609 214.571 104.792 215.793 106.815C217.062 108.916 217.905 111.056 217.938 113.369C223.472 113.387 228.773 115.047 232.836 119.515C234.148 120.957 235.044 123.181 234.322 125.136L233.892 126.299C232.527 129.991 226.394 132.117 224.309 127.775L224.213 127.563C221.998 122.407 213.495 122.948 208.976 123.475C205.826 123.844 202.715 124.627 199.673 125.504C198.601 125.813 197.539 126.149 196.478 126.491L195.417 126.835C194.851 127.018 191.903 128.619 193.737 128.24C194.23 128.138 194.601 128.856 194.098 129.097C191.912 130.142 189.58 128.061 189.726 125.713C189.979 121.637 196.451 119.403 199.565 117.997L199.752 117.912C200.946 117.36 202.197 116.831 203.488 116.34C202.762 115.26 202.162 114.06 201.663 112.772C201.191 111.556 200.876 110.374 200.703 109.081C200.533 108.449 200.533 107.817 200.703 107.184L200.729 107.003C200.641 106.585 200.599 106.153 200.605 105.718L200.587 105.549H200.605C200.666 104.026 201.271 102.5 202.26 101.511ZM165.732 144.916C174.515 147.63 189.005 155.023 184.428 166.434C178.037 176.914 161.088 169.212 152.875 165.826C145.496 163.382 141.654 173.723 148.789 176.84C207.748 200.165 207.531 138.606 167.87 139.51C163.503 139.609 163.366 144.014 165.732 144.916ZM87.7267 64.6487L89.2249 64.2115C97.0099 61.9565 104.957 58.0625 111.869 64.1385C114.583 66.5245 115.142 71.4825 113.2 74.4585C108.776 81.2395 102.215 80.2035 95.0699 80.7815C89.6299 81.2215 84.2709 82.8195 79.1929 84.8165C75.0429 86.4495 71.1939 88.7485 67.5599 91.3125C63.9899 93.8335 61.5509 97.7745 57.8889 100.044C56.5469 100.876 54.9969 100.02 54.5149 98.6705C52.8069 93.8855 55.6929 87.9245 58.1349 83.8475C61.1159 78.8735 65.6439 74.8055 70.5129 71.7275C75.8446 68.3564 81.7404 66.41 87.7267 64.6487ZM201.164 59.5C214.323 59.496 226.985 66.815 234.345 77.544C236.846 81.189 235.013 86.589 231.423 88.688C227.396 91.0439 223.09 89.3475 220.436 85.9716L220.278 85.767C216.057 80.146 210.616 75.719 204.166 72.837C201.019 71.43 197.539 70.289 194.135 69.71L193.035 69.5215C191.493 69.2631 189.705 69.0164 188.31 69.258C187.563 69.356 186.877 69.603 186.245 69.979C186.549 70.643 185.764 71.443 185.039 71.045C181.769 69.249 182.17 66.045 184.871 63.555C188.692 60.032 196.229 59.501 201.164 59.5Z" fill="black"/>
</svg>
