<svg width="289" height="294" viewBox="0 0 289 294" fill="none" xmlns="http://www.w3.org/2000/svg">
<path fill-rule="evenodd" clip-rule="evenodd" d="M203.139 188.33C203.381 187.572 204.434 187.574 204.676 188.33C206.874 195.181 208.165 201.89 211.447 208.332C212.258 209.167 212.839 210.218 213.15 211.353C214.683 213.9 216.391 216.318 218.302 218.607C220.706 221.487 222.455 224.192 221.181 228.123C220.553 230.06 218.931 231.299 216.887 231.392C211.275 231.646 208.078 226.294 206.093 220.714C192.205 225.326 176.913 227.937 162.357 226.79C150.525 225.856 137.636 222.892 127.042 216.85C127.105 219.132 127.192 221.416 127.272 223.701C127.42 227.927 128.557 232.552 128.117 236.702C127.681 240.82 125.343 244.006 121.106 244.644C117.459 245.192 112.945 242.757 112.234 238.851C111.41 234.317 112.936 231.15 114.191 226.87C115.3 223.088 116.17 219.224 117.126 215.401C118.09 211.541 118.879 207.648 119.594 203.737C120.118 200.874 119.74 197.648 120.754 194.951C120.834 194.74 121.04 194.589 121.273 194.656C126.668 196.206 126.974 204.892 126.952 209.553L126.951 209.783C126.943 210.733 126.952 211.683 126.962 212.632L129.023 213.083C140.34 215.532 151.332 217.392 163.231 216.717C177.189 215.926 189.463 210.823 202.709 207.326C201.609 201.035 201.271 194.172 203.139 188.33ZM156.462 64.3608C162.656 62.2398 169.352 61.2378 175.866 61.5588C189.828 62.2488 203.129 68.6168 212.283 79.2278C220.926 89.2448 225.622 101.808 225.562 115.062C225.495 128.677 221.92 144.009 215.186 155.927C201.037 180.968 167.989 181.142 144.239 171.158C118.894 160.504 108.582 133.635 114.687 107.658C119.277 88.1218 134.934 64.6808 156.462 64.3608ZM197.754 83.7008C190.276 77.6978 180.859 75.0008 171.344 75.6828C166.617 76.0218 161.813 77.2628 157.522 79.2798C155.241 80.3518 153.203 81.8488 150.957 82.9648C148.954 83.9586 146.786 84.5383 144.72 85.3748L143.951 85.7018C140.558 87.2178 137.141 85.0488 136.971 81.8878C129.59 92.2438 126.089 106.287 126.144 118.745C126.188 127.919 128.373 137.449 133.639 145.087C139.492 153.576 149.203 158.054 158.943 160.432C168.271 162.709 178.442 163.499 187.792 160.912C197.497 158.228 203.766 150.863 207.334 141.682C215.074 121.767 215.713 98.1178 197.754 83.7008ZM164.427 108.396C168.662 102.615 176.259 102.308 180.441 108.396C183.073 112.228 182.686 115.92 182.477 120.33L182.437 121.321C182.313 124.812 182.33 128.486 181.022 131.712C179.343 135.853 176.08 138.506 171.458 137.957C168.737 137.632 166.458 136.008 165.136 133.768L165.09 133.794C163.236 130.093 162.758 126.337 162.445 122.297L162.229 119.334C161.967 115.439 161.953 111.773 164.427 108.396Z" fill="black"/>
</svg>
