<svg width="289" height="294" viewBox="0 0 289 294" fill="none" xmlns="http://www.w3.org/2000/svg">
<path fill-rule="evenodd" clip-rule="evenodd" d="M178.872 231.417C172.085 234.085 164.066 234.715 157.061 232.442C150.362 230.268 144.28 225.429 140.6 219.344C137.322 213.924 135.953 207.492 137.89 201.079C137.983 200.772 138.283 200.576 138.573 200.5C140.158 201.943 141.138 203.376 142.116 204.802C143.765 207.206 145.419 209.586 147.688 211.642C150.989 214.632 155.438 217.061 159.853 217.862C164.175 218.648 168.599 217.953 172.47 215.884C174.824 214.627 176.727 212.946 178.611 211.257C180.663 209.418 182.683 207.551 185.509 206.512C187.774 205.68 190.153 206.382 191.981 207.775C193.945 209.271 195.358 211.613 195.279 214.062C195.158 217.856 193.497 221.021 191.088 223.632C187.83 227.162 183.223 229.706 178.872 231.417ZM170.814 136.867C178.365 141.457 189.871 152.16 181.748 163.539C172.186 173.573 158.418 162.069 151.634 156.866C145.343 152.833 138.275 163.204 144.112 167.912C193.135 204.208 213.03 138.067 174.633 131.47C170.406 130.743 168.836 135.447 170.814 136.867ZM91.3878 73.2679C101.68 72.7759 110.75 77.3979 120.558 79.4979C129.622 81.4399 138.552 80.2739 147.367 77.8039C161.673 73.7949 167.587 95.6949 153.476 99.9629C143.2 103.071 132.38 103.287 121.835 101.685C112.468 100.261 104.616 95.7009 95.6848 93.0459C88.0202 90.7685 79.0039 91.715 70.9097 92.7872L67.7678 93.2099C63.0978 93.8389 58.4028 94.4699 53.7788 95.3829C49.7668 96.1759 45.7618 97.6269 41.6668 97.7949C41.2018 97.8149 40.8078 97.2109 41.1008 96.8079C45.8577 90.2773 55.0258 85.1244 62.3185 81.6876L62.8128 81.4559C71.8148 77.2589 81.3648 73.7459 91.3878 73.2679ZM87.6171 121.423L87.6158 121.198C87.6298 114.821 91.3438 100.262 100.524 100.262C106.259 100.262 109.741 110.171 110.344 120.385L110.364 120.802C110.631 127.152 108.888 141.033 100.524 141.033C92.0714 141.033 87.704 127.886 87.6171 121.423ZM222.772 121.423L222.774 121.198C222.76 114.821 219.046 100.262 209.866 100.262C204.274 100.262 200.824 109.681 200.097 119.62L200.046 120.385C199.684 126.521 201.314 141.033 209.866 141.033C218.318 141.033 222.685 127.886 222.772 121.423ZM222.632 65.5012L223.288 65.5156C234.016 65.8876 245.051 72.2426 247.915 82.9176C248.063 83.4716 247.38 83.8446 246.975 83.4646C238.154 75.2059 226.291 83.0973 217.458 87.2337L214.213 88.7325C202.826 94.0303 189.875 100.259 177.231 96.3106C171.226 94.4356 167.412 88.2656 169.125 82.0336C170.649 76.4886 177.342 71.8286 183.139 73.83L183.402 73.9256C188.112 75.7273 193.904 73.9018 198.768 72.1021L202.764 70.6016C209.189 68.1634 215.645 65.4356 222.632 65.5012Z" fill="black"/>
</svg>
