<svg width="289" height="294" viewBox="0 0 289 294" fill="none" xmlns="http://www.w3.org/2000/svg">
<path fill-rule="evenodd" clip-rule="evenodd" d="M126.15 196.793C131.744 187.591 143.668 210.132 144.935 214.008C146.057 217.442 146.798 220.959 147.174 224.517C151.511 225.489 156.015 225.491 160.458 224.639C167.063 223.372 171.101 219.822 176.841 216.773C180.805 214.666 185.802 217.136 187.864 220.63C190.289 224.743 188.744 229.011 185.554 232.077C179.506 237.891 167.604 239.227 159.708 237.683C155.184 236.799 151.038 235.102 147.376 232.636C147.352 233.097 147.336 233.557 147.299 234.016L147.229 234.813C146.623 241.261 144.851 249.369 139.842 253.565C131.628 260.447 121.49 247.211 129.472 240.336L129.719 240.13C134.681 236.121 135.763 225.366 135.496 219.443C135.321 215.576 134.616 211.66 133.396 207.978L133.144 207.245C132.777 206.204 128.77 196.337 127.323 197.594L127.253 197.665C126.656 198.377 125.692 197.547 126.15 196.793ZM170.814 144.867C178.366 149.457 189.872 160.161 181.748 171.54C172.186 181.573 158.419 170.069 151.634 164.866C145.344 160.834 138.276 171.205 144.112 175.913C193.136 212.208 213.031 146.068 174.634 139.471C170.406 138.744 168.836 143.447 170.814 144.867ZM90.1789 102.441C97.5589 101.132 105.119 102.967 111.226 107.285L111.689 107.617C117.572 111.92 124.155 119.476 120.779 126.893C119.424 129.871 115.366 130.338 112.791 128.988C108.504 126.74 107.727 121.209 103.902 118.148C100.765 115.639 96.5409 114.117 92.5009 114.484C83.0099 115.346 77.1719 124.707 74.2239 132.774C73.8469 133.806 72.3319 134.207 71.7399 133.099C64.7889 120.107 77.0929 104.763 90.1789 102.441ZM208.389 97.5376C222.526 96.3726 239.073 111.029 235.351 125.951C233.566 133.111 222.945 132.906 221.057 125.951C220.018 122.124 220.122 118.738 217.367 115.56C215.093 112.936 211.862 111.412 208.389 111.646C204.561 111.904 201.03 113.817 198.347 116.506C195.924 118.934 194.475 122.487 191.965 124.636C191.347 125.164 190.52 125.198 189.91 124.636C185.59 120.653 188.183 112.361 190.922 108.203C194.842 102.253 201.225 98.1286 208.389 97.5376ZM63.258 75.9754C72.327 67.9474 88.806 60.1944 101.035 64.1454C108.066 66.4164 111.131 77.7454 103.282 81.3364C94.193 85.4944 83.714 83.8024 74.463 88.1124C70.578 89.9234 66.924 92.1864 64.219 95.5054C62.088 98.1214 59.92 101.563 56.838 103.071C56.028 103.468 54.931 103.478 54.282 102.742C47.526 95.1004 57.359 81.1964 63.258 75.9754ZM192.802 63.7469C198.407 62.1739 204.625 62.2059 210.319 63.1939C216.011 64.1819 221.79 66.5409 226.437 69.9819L226.976 70.3848C232.049 74.2077 238.103 79.7698 237.779 86.5419C237.508 92.1969 231.559 96.0219 226.423 93.0579C222.236 90.6409 220.266 85.7989 216.721 82.5749C213.796 79.9139 210.36 77.8159 206.694 76.3459C202.622 74.7129 198.543 73.9479 194.173 73.8749C190.808 73.8189 187.423 74.9229 184.121 75.2759C184.393 75.8339 181.783 75.5739 180.287 75.0789C179.179 74.6069 179.173 73.2059 179.557 72.2969C181.462 67.7939 188.393 64.9829 192.802 63.7469Z" fill="black"/>
</svg>
