<svg width="289" height="294" viewBox="0 0 289 294" fill="none" xmlns="http://www.w3.org/2000/svg">
<path fill-rule="evenodd" clip-rule="evenodd" d="M89.281 215.789C101.527 201.559 122.152 200.568 139.237 204.126C150.201 206.41 160.876 210.214 172.012 211.624C177.213 212.283 182.47 212.48 187.709 212.383C192.855 212.288 198.009 211.251 203.137 211.444C203.925 211.473 204.223 212.508 203.54 212.929C196.505 217.25 187.028 218.636 178.718 219.481C178.744 220.096 178.781 220.696 178.866 221.205C179.093 222.562 179.3 223.91 179.467 225.276C179.844 228.357 180.266 231.428 180.687 234.503C181.517 240.555 181.778 246.798 183.237 252.745L183.492 253.733C183.83 254.983 183.907 256.11 183.794 257.126L184.132 256.973L185.2 256.456L185.9 256.126C188.454 254.942 190.89 254.08 193.893 254.367C196.179 254.585 198.098 256.144 198.112 258.585C198.169 269.54 183.405 273.063 174.96 275.16L172.483 275.77C161.734 278.392 150.759 280.691 139.703 281.24C121.961 282.121 102.024 277.227 90.418 262.836C79.589 249.409 77.604 229.357 89.281 215.789ZM169.852 261.817C167.99 245.324 147.722 244.417 141.891 254.876C139.304 240.297 101.028 253.616 104.021 256.514C115.365 267.5 132.58 268.489 147.379 266.457C154.916 265.422 162.459 263.737 169.852 261.817ZM147.358 218.588L142.262 217.854L140.255 217.578C127.623 215.886 113.416 215.012 103.03 223.111C99.238 226.067 97.104 229.923 96.307 234.065C106.135 232.609 115.998 231.497 125.891 230.572L128.59 230.324C134.78 229.766 140.967 229.178 147.151 228.561L151.546 228.116L155.939 227.66C157.485 227.498 167.904 226.965 169.863 227.323C170.072 225.563 170.345 221.754 170.787 220.041C163.385 220.293 156.015 219.743 148.656 218.765L147.358 218.588ZM170.814 144.867C178.366 149.457 189.872 160.16 181.748 171.539C172.186 181.573 158.419 170.069 151.634 164.866C145.344 160.833 138.276 171.204 144.112 175.912C193.136 212.208 213.031 146.067 174.634 139.47C170.406 138.743 168.836 143.447 170.814 144.867ZM184.328 164.203L184.691 164.006L184.814 163.932C185.026 163.794 184.891 163.809 184.408 163.976L184.046 164.106V164.362C184.139 164.305 184.238 164.262 184.328 164.203ZM87.6175 123.423L87.6163 123.198C87.6303 116.821 91.3443 102.262 100.524 102.262C106.259 102.262 109.741 112.171 110.344 122.385L110.365 122.802C110.631 129.152 108.888 143.033 100.524 143.033C92.0719 143.033 87.7044 129.886 87.6175 123.423ZM222.773 121.423L222.774 121.198C222.76 114.821 219.046 100.262 209.866 100.262C204.274 100.262 200.825 109.681 200.097 119.62L200.046 120.385C199.684 126.521 201.314 141.033 209.866 141.033C218.318 141.033 222.686 127.886 222.773 121.423ZM92.8552 58.7844C100.347 57.6454 110.268 59.8094 113.761 67.4274C115.317 70.8214 113.474 74.5744 109.551 74.7624C100.07 75.2164 91.5672 73.1064 83.2452 79.2714C79.6638 81.925 76.6527 85.5992 74.1259 89.264L73.1699 90.6587L72.378 91.8078C70.6623 94.3303 69.0376 97.0709 69.2912 100.114C69.3662 101.015 68.4452 101.87 67.5702 101.834C62.1162 101.61 61.5292 94.7724 62.2462 90.6654C63.5802 83.0434 67.2692 75.8884 72.3822 70.1254C77.7522 64.0734 84.8412 60.0034 92.8552 58.7844ZM196.044 68.0349C201.21 64.7139 207.818 63.4379 213.87 63.9269C225.803 64.8879 245.822 75.0319 243.187 89.6069C242.374 94.1019 236.122 96.4739 232.438 93.9799C228.477 91.2989 227.513 87.1319 224.565 83.6279C222.213 80.8289 219.232 78.8039 216.04 77.0789C212.894 75.3774 209.254 74.3464 205.684 73.9705L205.089 73.9139C202.94 73.7309 192.088 73.7799 193.681 77.8309C193.993 78.6239 192.813 79.2519 192.271 78.6519C188.944 74.9719 192.712 70.1769 196.044 68.0349Z" fill="black"/>
</svg>
