<svg width="289" height="294" viewBox="0 0 289 294" fill="none" xmlns="http://www.w3.org/2000/svg">
<path fill-rule="evenodd" clip-rule="evenodd" d="M182.244 226.465L182.936 226.305C188.46 225.002 193.777 223.231 198.922 226.654C203.825 229.915 204.506 235.947 200.686 240.347C196.76 244.871 191.544 244.618 186.04 244.68L185.695 244.684C181.124 244.747 176.477 244.679 171.924 244.274C167.68 243.896 163.408 243.292 159.212 242.499L156.731 242.013C154.195 241.5 151.699 240.833 150.392 238.379C148.114 234.102 165.046 230.746 167.103 230.159C172.095 228.734 177.181 227.612 182.244 226.465ZM191.634 174.895C188.935 177.694 185.37 179.606 181.368 180.796C171.31 183.786 158.476 182.193 150.261 179.146C148.556 178.514 146.964 177.225 146.049 175.614C145.213 174.142 144.93 172.411 145.566 170.645C145.747 170.144 145.968 169.651 146.189 169.167C146.792 167.847 148.02 166.821 149.462 166.234C150.96 165.625 152.664 165.501 154.03 165.93C154.214 165.988 154.402 166.047 154.595 166.108C159.8 167.749 168.337 170.466 175.41 169.939C179.654 169.623 183.387 168.124 185.318 164.24C186.335 162.192 186.054 160.167 185.151 158.313C183.79 155.517 181.065 153.084 178.769 151.408C175.532 149.044 172.08 148.1 168.509 147.104C167.163 146.729 165.8 146.348 164.425 145.893C163.972 145.743 163.574 145.449 163.277 145.067C162.983 144.689 162.79 144.229 162.73 143.766C162.667 143.287 162.744 142.81 162.966 142.398C163.172 142.016 163.502 141.681 163.994 141.461C170.98 138.331 180.015 140.399 186.835 145.323C190.244 147.784 193.087 150.945 194.839 154.478C196.465 157.756 197.156 161.353 196.519 165.021C195.805 169.128 194.067 172.371 191.634 174.895ZM77.1364 105.055C79.0994 104.19 80.7124 108.239 81.1164 109.343L81.952 111.633C83.3149 115.326 84.8795 119.081 87.7454 121.822C90.1444 124.117 93.9884 126.062 96.7714 123.377C99.4114 120.83 98.1244 117.961 98.5134 114.836C99.2154 109.184 106.922 103.535 111.556 109.433C122.024 122.759 105.828 141.291 90.9104 138.04C83.3235 136.386 77.2163 130.303 74.7072 123.069L74.5784 122.687C73.0764 118.104 71.5574 107.516 77.1364 105.055ZM212.22 114.336L212.148 114.167C207.162 102.826 224.948 97.9516 226.456 108.135L226.551 108.822C228.018 120.126 224.927 135.328 211.082 136.455C195.54 137.721 189.068 120.38 190.456 107.655C190.705 105.377 193.469 105.062 194.323 107.132L194.505 107.583C197.014 113.978 199.397 126.277 208.239 126.265C214.146 126.256 213.864 118.281 212.22 114.336ZM223.496 81.5053C232.43 81.1883 232.418 95.1703 223.496 95.3803C193.694 96.0813 163.869 97.0133 134.058 97.1733L128.64 97.2064C100.638 97.3941 72.5402 97.7767 44.6204 95.4263C42.2374 95.2263 42.6804 91.8803 44.6714 92.0153C73.9424 87.8493 103.57 86.6313 133.064 85.0483C163.181 83.4313 193.356 82.5753 223.496 81.5053Z" fill="black"/>
</svg>
