<svg width="289" height="294" viewBox="0 0 289 294" fill="none" xmlns="http://www.w3.org/2000/svg">
<path fill-rule="evenodd" clip-rule="evenodd" d="M199.723 206.425L200.548 206.382C206.179 206.062 211.647 205.239 216.677 208.394C223.363 212.587 223.393 222.123 216.677 226.308C211.393 229.603 205.651 228.521 199.723 228.367C194.841 228.24 189.958 228.152 185.075 228.1C175.316 227.998 165.563 227.974 155.803 228.023C146.998 228.067 138.185 227.964 129.382 227.752L125.61 227.654C116.581 227.406 107.127 227.718 98.2328 225.96L97.8508 225.894L97.8618 225.875C96.3208 225.357 95.5058 222.9 97.3478 222.046C106.173 217.955 116.262 216.24 125.739 214.294C135.335 212.326 145.096 210.904 154.828 209.79C164.547 208.68 174.337 207.896 184.1 207.273C189.304 206.939 194.513 206.664 199.723 206.425ZM170.19 80.7041L170.833 80.273C177.901 75.606 188.058 71.1121 196.203 74.6551C196.663 74.8551 197.052 75.1161 197.39 75.4161C199.389 75.4551 201.401 75.6211 203.419 75.9251C219.362 78.3281 234.094 88.7911 241.297 103.196C249.484 119.569 245.595 136.823 231.108 147.959C223.99 153.43 215.625 157.369 206.62 158.257C203.676 158.547 200.556 158.604 197.73 157.712C199.068 160.56 200.086 163.537 200.61 166.677C202.403 177.427 198.139 186.291 188.126 190.933C179.327 195.014 167.149 196.578 158.447 191.427C151.091 187.075 153.5 172.667 163.179 173.958C169.713 174.829 175.603 177.01 182.06 174.224C187.323 171.955 184.13 164.296 182.544 160.267C179.89 153.534 175.986 147.195 172.819 140.657L172.235 139.429C170.244 135.166 167.771 130.662 165.878 126.068C164.836 131.464 162.967 136.759 160.765 141.661C155.539 153.293 145.423 160.41 133.37 163.743C120.978 167.168 106.435 167.963 93.6585 167.542C80.6645 167.115 66.9845 163.71 57.4775 154.292C40.0615 137.039 45.0635 106.853 63.3905 92.4321C75.2455 83.1031 91.9495 76.7101 107.29 78.3661C114.974 76.6371 123.568 77.6191 131.256 79.3611C141.658 81.7181 151.589 86.7631 158.389 94.7981C158.893 93.5341 159.475 92.3231 160.141 91.1671C159.841 91.0291 159.655 90.5851 159.951 90.3191C160.493 89.8321 161.05 89.3651 161.607 88.8971C163.822 85.7911 166.683 83.0861 170.19 80.7041ZM44.1715 161.566C43.5455 160.678 44.7695 159.526 45.6475 160.091C52.8415 164.73 60.3725 168.947 68.6215 171.405C76.6795 173.806 85.0565 173.558 93.1505 175.61C96.1925 176.381 95.7095 180.336 93.1505 181.305C84.2425 184.681 74.1915 181.848 65.7285 178.265C57.1425 174.631 49.5845 169.226 44.1715 161.566ZM92.4535 87.4601L92.6685 87.2011L92.1455 87.3751C82.0635 90.7691 73.7615 96.3651 67.0135 104.534C55.5135 118.455 55.3765 140.59 72.5725 149.998C81.8435 155.069 92.7875 155.308 103.082 154.771L105.163 154.66C114.2 154.161 123.422 153.422 132.143 150.978C141.654 148.312 148.262 142.564 151.901 133.301L152.203 132.52C155.833 122.986 157.723 112.383 150.984 103.753C139.568 89.1361 113.189 86.2161 96.8845 93.2031C92.9795 94.8761 89.8455 90.7931 92.4535 87.4601ZM197.086 83.5381C196.815 83.8021 196.525 84.0431 196.203 84.2381C192.93 86.2011 189.249 86.2211 185.621 87.1211C182.279 87.9501 179.008 88.9621 175.932 90.5271C171.1 92.9821 166.117 95.9191 161.549 99.1221C162.528 100.686 163.404 102.337 164.155 104.085C166.229 108.916 166.928 114.003 166.71 119.111C169.893 121.865 172.554 125.29 175.371 128.385L177.855 131.118C180.753 134.315 183.632 137.548 186.329 140.903C187.932 142.897 189.559 144.939 191.122 147.041C191.327 146.414 191.616 145.8 192.021 145.217C193.544 143.021 195.895 141.912 198.582 142.547C200.934 143.105 202.506 144.169 204.963 144.185C207.972 144.205 210.872 143.557 213.72 142.628C219.318 140.802 224.804 137.521 228.898 133.271C238.138 123.676 233.263 110.155 226.055 101.015C218.754 91.7561 208.269 85.7441 197.086 83.5381ZM114.793 106.584C117.759 105.728 122.172 107.078 123.477 110.118L124.413 112.331C124.384 112.265 124.361 112.214 124.334 112.154C124.665 112.938 124.982 113.695 125.236 114.499L126.113 115.179C126.862 116.01 127.555 116.887 128.191 117.812C129.695 120.382 130.131 123.673 129.361 126.553C128.09 131.312 123.72 134.367 118.872 134.397C104.681 134.48 101.203 110.508 114.793 106.584ZM200.404 102.277C206.961 101.984 211.328 107.775 211.851 113.724C212.149 117.11 211.464 120.812 210.493 124.05C209.045 128.881 204.441 131.908 199.477 131.242C195.526 130.711 192.036 127.707 191.051 123.846C189.753 120.662 189.02 117.159 188.957 113.724C188.837 107.31 194.297 102.55 200.404 102.277ZM113.875 48.7474C120.525 47.6754 126.878 50.9074 127.845 58.0544C128.819 65.2634 123.51 70.0274 116.851 70.7354C104.297 72.0694 91.4792 72.3864 78.8652 72.9374C73.6041 73.1663 68.3363 73.2636 63.0702 73.3101L60.4372 73.3294C55.5392 73.3584 49.1522 74.3254 44.7262 71.9144C44.4382 71.7584 44.4492 71.4034 44.6322 71.1794C47.7424 67.3498 54.1731 65.7179 58.7698 64.0312L59.1592 63.8864C64.9782 61.6914 70.8622 59.6364 76.8242 57.8574L79.8538 56.9587C90.9926 53.678 102.454 50.5917 113.875 48.7474ZM156.088 45.2411C160.198 43.6961 164.254 44.6591 167.049 47.2721C176.396 49.8745 186.016 51.8686 195.424 54.147L197.984 54.7761C209.778 57.7191 222.738 59.9871 233.706 65.3821C234.87 65.9551 234.138 67.4411 233.114 67.5661C220.896 69.0501 207.733 66.6911 195.586 65.2711C183.141 63.8161 170.633 61.4161 158.151 60.4761C149.192 59.8011 147.89 48.3241 156.088 45.2411Z" fill="black"/>
</svg>
