<svg width="289" height="294" viewBox="0 0 289 294" fill="none" xmlns="http://www.w3.org/2000/svg">
<path fill-rule="evenodd" clip-rule="evenodd" d="M151.882 206.234C161.204 202.894 171.098 204.15 180.502 207.619L181.345 207.935C189.984 211.228 200.54 216.948 204.074 225.881C204.774 227.652 205.102 229.464 205.146 231.267C206.301 231.381 207.446 231.531 208.581 231.73C210.917 232.141 210.807 235.853 208.581 236.341C207.171 236.65 205.735 236.876 204.286 237.045C202.946 241.211 200.173 244.992 196.671 247.644C188.473 253.851 177.175 255.02 167.265 255.969C156.306 257.018 145.293 256.762 134.375 255.435L130.532 254.943C121.591 253.782 111.622 252.288 104.021 247.505C96.8658 243.004 91.9718 234.313 95.0008 225.872C98.1018 217.228 108.732 213.56 116.622 210.785C127.959 206.797 140.023 205.233 151.882 206.234ZM136.065 235.202C136.176 237.728 136.271 240.256 136.371 242.784C136.401 243.559 136.178 244.259 135.798 244.865C141.22 245.502 146.69 245.802 152.145 245.798C151.147 242.783 151.094 239.321 151.037 236.102C146.042 235.858 141.053 235.568 136.065 235.202ZM156.141 236.338L156.576 237.971C157.25 240.53 157.862 243.162 157.772 245.688C160.315 245.592 162.85 245.44 165.371 245.221L168.587 244.947C169.318 244.885 170.058 244.819 170.804 244.749C170.969 242.131 171.277 239.478 171.551 236.86C166.413 236.721 161.276 236.555 156.141 236.338ZM176.522 236.974C176.756 239.287 176.974 241.652 177.066 243.995C181.194 243.352 185.243 242.351 188.702 240.582C190.442 239.692 191.837 238.616 192.877 237.424C189.383 237.342 185.899 237.165 182.519 237.11C181.852 237.099 181.186 237.085 180.52 237.07L176.522 236.974ZM104.817 231.653C105.087 236.48 112.718 239.925 116.647 241.059C120.396 242.142 124.212 243.02 128.067 243.718C127.994 243.395 127.958 243.077 127.984 242.784C128.229 240.06 128.47 237.337 128.727 234.617L126.658 234.453C119.387 233.893 111.825 233.444 104.817 231.653ZM152.438 213.261C153.049 219.309 153.897 225.323 155.027 231.295L157.096 231.339C162.063 231.418 167.031 231.45 171.999 231.456C172.012 231.212 172.025 230.969 172.034 230.728C172.22 225.676 172.149 220.623 171.964 215.573C165.653 214.18 159.047 213.726 152.438 213.261ZM174.556 216.207C175.109 221.278 175.57 226.358 175.99 231.444L180.343 231.437C181.068 231.435 181.793 231.431 182.519 231.425C186.596 231.387 190.785 231.12 194.969 231.008C194.657 228.824 193.371 226.603 191.001 224.582C185.985 220.305 180.421 217.781 174.556 216.207ZM148.558 212.1C143.762 212.614 139.002 213.456 134.311 214.635C135.536 218.186 135.302 222.25 135.561 225.959C135.676 227.592 135.77 229.226 135.856 230.859C140.874 230.982 145.892 231.1 150.91 231.207C150.75 225.194 150.853 219.182 151.192 213.173L150.645 213.134C149.833 213.076 149.108 212.671 148.558 212.1ZM131.132 215.488C128.939 216.115 126.763 216.811 124.608 217.591L122.257 218.44C116.591 220.505 109.093 223.495 105.934 228.112C105.403 228.888 105.084 229.639 104.927 230.364C112.87 229.631 121.106 230.37 129.121 230.672C129.23 229.624 129.343 228.576 129.462 227.529L129.646 225.959C130.056 222.568 130.052 218.801 131.132 215.488ZM170.814 142.867C178.366 147.457 189.872 158.161 181.748 169.54C172.186 179.573 158.418 168.069 151.634 162.866C145.343 158.834 138.275 169.205 144.112 173.913C193.136 210.208 213.031 144.068 174.634 137.471C170.406 136.744 168.836 141.447 170.814 142.867ZM78.2565 87.2131C88.9875 68.5631 115.537 68.3481 130.726 82.5901C145.228 96.1891 147.022 119.39 135.439 135.294C123.094 152.244 99.1125 156.933 79.6655 150.892C61.4355 145.229 51.6365 125.45 57.8855 107.328C61.2655 97.5261 69.0455 90.7491 78.2565 87.2131ZM68.2577 55.9754C77.3267 47.9474 93.8057 40.1944 106.035 44.1454C113.066 46.4164 116.131 57.7454 108.282 61.3364C99.1927 65.4944 88.7137 63.8024 79.4627 68.1124C75.5777 69.9234 71.9237 72.1864 69.2187 75.5054C67.0877 78.1214 64.9197 81.5634 61.8377 83.0714C61.0277 83.4684 59.9307 83.4784 59.2817 82.7424C52.5257 75.1004 62.3587 61.1964 68.2577 55.9754ZM197.802 43.7469C203.407 42.1739 209.625 42.2059 215.319 43.1939C221.011 44.1819 226.79 46.5409 231.437 49.9819L231.976 50.3848C237.049 54.2076 243.103 59.7698 242.779 66.5419C242.508 72.1969 236.559 76.0219 231.423 73.0579C227.236 70.6409 225.266 65.7989 221.721 62.5749C218.796 59.9139 215.36 57.8159 211.694 56.3459C207.622 54.7129 203.543 53.9479 199.173 53.8749C195.808 53.8189 192.423 54.9229 189.121 55.2759C189.393 55.8339 186.783 55.5739 185.287 55.0789C184.179 54.6069 184.173 53.2059 184.557 52.2969C186.462 47.7939 193.393 44.9829 197.802 43.7469ZM203.903 75.3909C213.292 73.5269 223.731 75.5679 231.589 81.0719C245.679 90.9409 252 111.351 245.452 127.314C238.954 143.157 221.193 153.236 204.257 150.209C186.968 147.119 173.594 129.709 175.459 112.169C176.252 104.702 179.509 97.9719 184.328 92.8849C184.365 92.7099 184.406 92.5329 184.475 92.3509C187.863 83.3339 194.283 77.3019 203.903 75.3909ZM117.989 89.7301C107.224 83.2501 91.3965 86.8681 82.1495 94.6911C80.3135 96.2451 78.2415 95.7901 77.1145 94.4341C70.8385 99.5001 66.4075 106.587 65.6955 115.217C64.4205 130.696 75.4435 140.876 90.2955 142.047C105.474 143.244 121.182 139.008 128.331 124.465C134.504 111.91 129.973 96.9431 117.989 89.7301ZM219.898 90.3999C211.469 87.0949 199.38 89.0479 192.02 94.7039C186.417 101.928 183.69 111.84 185.844 119.958C188.956 131.682 200.206 140.815 212.565 139.516C224.003 138.314 234.337 129.158 235.565 117.533C236.746 106.352 230.61 94.5999 219.898 90.3999ZM212.747 107.944C214.668 106.574 216.96 108.117 217.663 109.944L218.065 110.772C218.278 111.215 218.496 111.673 218.504 111.69L218.58 111.911C218.682 112.102 218.804 112.28 218.92 112.461C219.01 112.523 219.757 113.458 219.857 113.58C221.062 115.068 221.702 116.429 221.664 118.387C221.591 122.258 217.979 124.984 214.234 124.047C210.206 123.039 208.491 118.873 208.858 115.048C209.149 112.02 210.252 109.723 212.747 107.944ZM103.388 108.684C105.165 107.068 107.907 106.932 109.661 108.684C110.624 109.646 111.014 110.718 111.705 111.837L112.032 112.351C112.751 113.455 113.503 114.515 113.697 115.87C114.155 119.059 113.166 122.027 110.024 123.354C106.899 124.672 104.005 123.324 102.102 120.758C99.8497 117.718 100.534 111.278 103.388 108.684Z" fill="black"/>
</svg>
