<svg width="289" height="294" viewBox="0 0 289 294" fill="none" xmlns="http://www.w3.org/2000/svg">
<path fill-rule="evenodd" clip-rule="evenodd" d="M167.937 193.333C176.435 193.045 184.994 192.385 193.446 193.624C207.488 195.681 221.709 205.658 221.664 221.175C221.589 247.205 192.255 257.056 171.348 260.451L169.026 260.826C143.854 264.857 113.846 268.502 91.2608 254.229C80.6178 247.503 73.8698 236.138 76.9858 223.374C79.9538 211.211 90.2198 202.475 101.743 198.7C115.186 194.295 129.096 196.557 142.775 198.37C143.772 198.503 144.766 198.628 145.76 198.756C148.942 197.74 152.07 196.371 155.26 195.431C159.462 194.192 163.548 193.481 167.937 193.333ZM164.845 226.694L151.657 228.422C146.72 229.069 141.782 229.692 136.845 230.296C137.477 237.022 137.586 243.822 137.362 250.694C146.258 250.501 155.201 249.35 163.932 247.881C164.51 240.832 164.852 233.774 164.845 226.694ZM125.845 231.694C113.862 232.998 101.869 234.165 89.8451 235.157C92.5545 240.391 99.5 243.711 104.82 245.588C110.903 247.734 117.181 249.026 123.551 249.694C124.657 243.764 125.373 237.745 125.845 231.694ZM212.842 221.694C203.783 223.179 194.448 223.826 185.408 224.964L174.845 226.293C175.929 232.72 176.748 239.195 177.266 245.694L178.912 245.371C186.321 243.887 193.765 241.899 200.312 238.135L200.866 237.809C206.101 234.647 213.01 228.362 212.842 221.694ZM126.845 211.694C120.92 212.226 114.659 212.33 108.951 213.586C100.609 215.421 90.5726 220.021 88.9945 229.412C88.7364 230.95 88.8239 232.373 89.1708 233.694C101.522 231.352 113.89 229.202 126.291 227.201C126.588 222.028 126.74 216.847 126.845 211.694ZM158.92 208.694L150.804 209.4C144.822 209.922 138.833 210.091 132.845 210.535C134.288 215.215 135.328 219.936 136.04 224.694C140.961 223.934 145.886 223.19 150.817 222.468L164.845 220.415L164.826 216.873C164.809 214.494 164.778 212.087 164.691 209.685L164.107 209.637C162.352 209.443 160.629 209.101 158.92 208.694ZM208.845 214.273C203.237 209.238 192.736 209.585 186.03 209.791C181.002 209.945 175.903 210.47 170.845 210.463C171.792 213.501 172.691 216.558 173.429 219.694L184.238 218.117C192.364 216.932 200.614 215.3 208.845 214.273ZM170.815 144.868C178.366 149.458 189.872 160.161 181.748 171.54C172.186 181.573 158.419 170.069 151.634 164.867C145.344 160.834 138.276 171.205 144.112 175.913C193.136 212.208 213.031 146.068 174.634 139.471C170.406 138.744 168.836 143.448 170.815 144.868ZM244.786 119.274C242.203 136.156 215.664 159.697 212.063 159.697C208.461 159.697 177.626 129.745 177.626 116.421C177.626 103.098 190.946 85.2133 212.063 107.731C224.071 92.6953 247.369 102.393 244.786 119.274ZM126.884 104.269C133.128 113.386 130.751 124.728 124.395 133.04C118.771 140.397 99.8499 156.862 96.8869 157.286C93.2346 157.808 76.5172 138.903 72.6502 135.73C68.7832 132.557 58.0623 122.358 60.6082 112.912C63.0572 103.824 76.1618 88.4559 95.2965 104.269C101.38 89.1868 121.244 96.0338 126.884 104.269ZM64.7096 74.9159C74.5106 63.9329 95.2676 52.3439 106.708 67.1859C109.629 70.9779 106.51 77.1749 102.245 78.1549C96.9626 79.3699 91.6266 78.6309 86.4406 80.1379C81.6886 81.5189 77.1366 84.2859 73.0636 87.0439C68.4186 90.1879 64.1406 93.6979 60.2096 97.6969C57.8716 100.076 54.9256 105.712 51.3196 105.817C47.7346 105.922 52.5466 94.7109 52.9446 93.7409C55.7716 86.8359 59.7426 80.4819 64.7096 74.9159ZM183.328 48.0565C188.972 45.4263 194.478 46.5966 200.159 48.1508L202.606 48.8305C208.66 50.5135 215.123 52.5815 220.317 56.2105L220.725 56.4993C227.258 61.1866 237.248 71.2445 232.479 79.9825C232.16 80.5655 231.484 80.6235 230.94 80.3855C224.796 77.6945 220.241 72.3205 213.706 70.0725L212.5 69.6619C206.171 67.5301 198.341 65.2887 191.529 65.4925C186.739 67.0494 180.27 65.7598 179.023 59.9292L178.967 59.6435L178.859 59.0395C178.141 55.0555 179.209 49.9765 183.328 48.0565Z" fill="black"/>
</svg>
