<svg width="289" height="294" viewBox="0 0 289 294" fill="none" xmlns="http://www.w3.org/2000/svg">
<path fill-rule="evenodd" clip-rule="evenodd" d="M96.2844 219.368C96.3897 208.35 105.938 206.45 115.008 207.919C130.363 210.403 145.775 212.151 161.338 212.466L164.02 212.513C164.452 211.883 165.174 211.405 166.154 211.3C174.781 210.368 183.594 210.519 192.268 210.263C199.835 210.041 207.611 209.284 215.177 209.878L215.779 209.931C225.026 210.826 234.784 215.546 233.668 226.398C232.641 236.447 223.035 245.343 215.364 250.927C213.813 252.046 212.227 253.095 210.595 254.051C210.083 254.704 209.336 255.159 208.473 255.252C200.919 259.332 192.584 261.746 183.956 262.55C165.664 264.252 144.399 262.41 126.83 254.483C121.118 251.906 115.79 248.688 111.08 244.736C103.817 238.639 96.2037 229.394 96.2844 219.368ZM168.357 241.215C161.024 240.994 153.703 242.02 146.719 244.282C141.986 245.809 137.672 248.746 133.137 250.787C148.421 256.616 166.177 257.887 181.857 256.826C188.736 256.36 195.405 254.774 201.619 252.046C200.651 251.347 199.671 250.636 198.645 250.017C195.545 248.14 192.303 246.543 188.922 245.272C182.336 242.801 175.387 241.437 168.357 241.215ZM170.815 144.865C168.836 143.445 170.406 138.742 174.634 139.469C213.031 146.066 193.136 212.206 144.112 175.911C138.276 171.203 145.344 160.832 151.634 164.864L153.868 166.586C161.13 172.153 173.142 180.568 181.748 171.538C189.872 160.158 178.366 149.455 170.815 144.865ZM196.809 94.8075C204.971 87.8434 215.208 92.9757 221.217 100.029L222.277 101.29C223.479 102.729 224.81 104.405 225.61 106.197C232.269 100.527 241.299 96.5375 249.94 99.1275C258.32 101.648 263.099 109.648 261.66 118.237C260.027 128.005 252.637 134.57 244.696 139.646L242.444 141.076C232.902 147.159 223.973 153.287 216.12 161.648C214.839 163.007 212.07 162.827 211.23 161.018L210.553 159.563L209.87 158.107C204.299 146.228 198.33 134.427 193.429 122.268C189.799 113.257 188.62 101.787 196.809 94.8075ZM103.766 101.116L105.009 99.678C110.989 92.718 121.119 88.058 129.11 94.808C137.619 101.998 135.949 113.888 132.159 123.058C127.595 134.118 122.265 144.934 117.143 155.783L116.049 158.108C115.589 159.078 115.139 160.048 114.69 161.018C113.849 162.828 111.07 163.008 109.799 161.648C102.19 153.548 93.5809 147.555 84.3858 141.664L81.6101 139.898C73.5391 134.778 65.9091 128.168 64.2491 118.238C62.8291 109.668 67.5791 101.618 75.9691 99.127C84.6291 96.558 93.6391 100.518 100.309 106.198C101.104 104.36 102.473 102.63 103.766 101.116ZM114.708 51.1837C117.629 54.9757 114.51 61.1727 110.245 62.1527C104.963 63.3677 99.6266 62.6287 94.4406 64.1357C89.6886 65.5167 85.1366 68.2837 81.0636 71.0417C76.4186 74.1857 72.1406 77.6957 68.2096 81.6947C65.8716 84.0737 62.9256 89.7097 59.3196 89.8147C55.7346 89.9197 60.5466 78.7087 60.9446 77.7387C63.7716 70.8337 67.7426 64.4797 72.7096 58.9137C82.5106 47.9307 103.268 36.3417 114.708 51.1837ZM224.159 48.1486L226.606 48.8283C232.66 50.5113 239.123 52.5793 244.317 56.2083L244.725 56.4971L245.353 56.957C251.874 61.8183 261.097 71.5182 256.479 79.9803C256.16 80.5633 255.484 80.6213 254.94 80.3833C248.796 77.6923 244.241 72.3183 237.706 70.0703L236.5 69.6597C230.171 67.5279 222.341 65.2864 215.529 65.4903C210.739 67.0472 204.27 65.7576 203.023 59.9269L202.967 59.6413L202.859 59.0373C202.141 55.0533 203.209 49.9743 207.328 48.0543C212.972 45.424 218.478 46.5943 224.159 48.1486Z" fill="black"/>
</svg>
