<svg width="289" height="294" viewBox="0 0 289 294" fill="none" xmlns="http://www.w3.org/2000/svg">
<path fill-rule="evenodd" clip-rule="evenodd" d="M101.162 211.172C108.415 209.772 117.438 212.822 124.671 214.158L125.21 214.255C133.981 215.787 142.733 217.639 151.601 218.543C160.067 219.408 168.713 219.563 177.18 218.59C181.246 218.122 185.277 217.326 189.227 216.258C190.917 215.801 192.593 215.291 194.249 214.725L194.436 214.654C195.653 214.151 198.943 212.259 198.904 213.313C199.829 212.246 201.103 211.489 202.502 211.121C204.476 210.602 207.01 211.089 208.662 212.485C210.811 210.783 214.035 212.004 215.476 214.042C217.947 217.537 217.143 221.634 216.824 225.689L216.797 226.046C216.526 229.868 216.111 233.664 215.599 237.458L215.373 239.083C214.576 244.694 214.357 253.948 207.558 255.787C202.181 257.243 197.26 251.71 193.794 247.319L191.896 244.887C189.649 242.036 187.609 239.101 185.965 235.86C185.216 234.385 184.492 232.874 183.865 231.343C183.786 231.15 183.728 230.977 183.668 230.803C173.696 232.145 163.488 231.953 153.49 230.635C147.16 229.8 140.924 228.594 134.782 226.974L132.011 231.983C128.768 237.824 125.479 243.647 122.022 249.356L121.754 249.791C118.518 254.94 113.099 260.097 106.692 256.24C100.959 252.788 100.715 244.936 100.111 239.077C99.7078 235.163 99.381 231.223 99.2239 227.287L99.1672 225.601C99.0642 221.785 98.4432 217.362 99.9102 213.793C100.123 213.273 100.87 212.873 101.32 213.42C104.385 217.146 105.312 222.921 106.636 227.494C108.11 232.582 110.245 238.139 111.011 243.417L111.225 243.045C111.98 241.612 112.749 240.186 113.523 238.762L115.843 234.491C117.924 230.635 120.043 226.803 122.181 222.98C119.74 222.063 117.321 221.078 114.912 220.076L109.445 217.79C106.322 216.471 103.138 214.982 100.79 212.582C100.374 212.157 100.519 211.295 101.162 211.172ZM204.88 225.26C199.493 227.45 193.921 229.03 188.248 230.078C188.614 230.453 188.979 230.828 189.319 231.222C190.654 232.767 192.07 234.251 193.495 235.719L194.35 236.597C196.532 238.836 199.81 242.523 203.155 244.666L203.336 243.699C203.366 243.532 203.389 243.387 203.401 243.275L203.757 240.094C203.815 239.564 203.871 239.033 203.924 238.502C204.212 235.633 204.441 232.758 204.681 229.885C204.807 228.371 204.837 226.816 204.88 225.26ZM141.13 40.3928C153.96 34.9128 169.187 37.5 180.238 45.7778C191.546 54.2488 196.491 68.0208 197.145 81.7608C206.088 74.1248 218.967 79.9048 226.499 87.0598C235.191 95.3168 239.587 107.778 237.561 119.604C235.542 131.39 227.013 141.788 215.474 145.293C209.953 146.97 203.8 147.008 198.246 145.448C196.36 144.917 194.049 144.095 191.914 142.95C192.036 143.44 192.16 143.931 192.276 144.42C195.047 156.149 196.618 169.333 192.46 180.932C185.777 199.571 162.04 210.005 147.22 193.461C141.401 186.966 136.878 176.794 137.23 167.939C137.415 163.286 140.051 157.903 145.493 158.218C149.713 158.461 151.714 161.993 150.634 165.73L150.568 165.946C148.28 173.091 152.186 183.415 157.845 188.288C166.523 195.761 178.432 189.258 183.177 180.495C188.707 170.282 188.034 157.188 186.266 146.077C184.53 135.167 180.659 125.188 176.55 115.093C176.114 115.172 175.672 115.245 175.22 115.306C167.048 116.415 150.421 116.833 141.392 110.913C142.362 120.05 140.459 129.456 135.268 137.193C129.484 145.815 120.77 150.378 110.628 151.776C100.778 153.136 89.3599 153.411 79.6349 151.077C58.9259 146.107 51.6239 120.54 57.8869 102.084C61.5919 91.1668 71.9299 81.3478 83.4209 78.8678C89.3409 74.9738 97.2899 73.8208 104.122 74.3518C114.326 75.1468 124.376 79.5558 131.21 87.2988C133.821 90.2568 135.968 93.6058 137.623 97.1898C138.179 96.7518 138.827 96.4228 139.559 96.2508C140.702 95.9828 141.702 95.9228 142.82 96.3168C143.377 96.5138 144.18 97.2098 144.663 97.6618L145.766 98.9578C147.119 100.534 148.406 101.857 150.814 102.837C157.528 105.57 166.634 106.163 173.767 105.604C191.967 104.18 189.675 80.0728 185.192 67.6878C179.882 53.0158 164.662 43.8888 149.178 46.4948C142.525 47.6138 136.178 51.1548 131.308 55.7818C125.872 60.9478 123.544 67.1878 120.283 73.7268C120.09 74.1138 119.424 74.0298 119.341 73.6028C116.661 59.8148 129.369 45.4168 141.13 40.3928ZM44.194 151.555C43.641 150.906 44.367 149.765 45.159 150.303C50.96 154.244 57.411 157.088 64.424 157.857C67.718 158.217 71.038 158.242 74.319 157.737C77.114 157.305 79.633 156.453 82.423 157.223C83.908 157.633 84.178 159.356 83.271 160.436C79.056 165.453 68.679 164.113 63.021 162.768C55.704 161.03 49.071 157.285 44.194 151.555ZM239.405 142.395C242.253 140.63 245.643 144.125 243.959 146.948C239.635 154.191 227.102 154.781 219.831 153.047C219.262 152.913 219.392 152.02 219.968 152.036C224.147 152.139 227.924 151.336 231.524 149.156C234.6 147.293 236.435 144.235 239.405 142.395ZM100.443 84.4959L99.8719 84.5008C93.2239 84.6078 87.1359 87.1428 80.7299 88.4828C80.1989 88.5948 79.6659 88.5378 79.1849 88.3618C71.3829 93.5668 66.0049 101.751 65.2749 112.52C64.7689 119.979 66.5899 128.106 71.0189 134.227C76.06 141.194 84.1808 142.269 92.1781 142.476L92.9909 142.495C108.109 142.79 124.741 141.897 130.13 124.995C134.118 112.486 129.859 97.2998 118.75 89.8068C113.355 86.1678 106.911 84.4898 100.443 84.4959ZM222.242 93.4668L221.798 92.9491C215.869 86.1459 206.467 79.9495 197.198 83.3758L197.225 84.5216C197.228 84.7127 197.23 84.9038 197.23 85.0948C197.202 98.2328 192.111 110.494 179.598 114.349C182.955 119.138 185.652 124.452 187.812 129.967C188.574 129.469 189.501 129.153 190.577 129.044C194.982 128.598 197.506 132.735 201.326 134.278C204.902 135.724 208.958 136.097 212.733 135.35C220.991 133.717 226.785 126.596 228.815 118.694C231.11 109.761 228.078 100.396 222.242 93.4668ZM96.5344 104.524C99.2882 99.8721 106.082 100.545 108.805 104.646L108.935 104.851L108.964 104.813C113.5 110.691 111.308 119.975 104.722 123.28C99.4394 125.929 92.7204 125.234 89.2084 120.077C88.4214 118.921 87.9164 117.561 87.7314 116.184C87.6054 115.247 87.6774 114.311 87.8874 113.38L87.8343 113.598C87.9384 113.128 88.1034 112.391 88.1464 112.216C88.6104 110.32 89.7234 108.286 91.1164 106.913C92.5514 105.499 94.5444 104.639 96.5344 104.524ZM209.702 99.6919C212.141 99.6919 214.305 100.712 216.067 102.329C218.573 104.63 218.922 107.942 218.381 111.085C218.215 112.044 217.987 112.971 217.748 113.915L217.543 114.769C217.507 114.91 217.468 115.051 217.424 115.19C217.274 115.775 217.035 116.312 216.751 116.826C215.708 120.709 211.485 122.637 207.762 121.79C206.01 121.391 204.263 119.937 203.371 118.413C203.077 117.911 202.871 117.411 202.725 116.909L202 115.19C201.864 114.778 201.779 114.336 201.67 113.915C201.427 112.972 201.193 112.043 201.024 111.085C200.449 107.837 200.907 104.759 203.338 102.329C204.97 100.696 207.395 99.6919 209.702 99.6919ZM155.98 66.0084C160.213 65.4404 164.524 67.4124 166.713 71.1514C168.615 74.4014 168.607 78.7744 166.713 82.0244L166.553 82.2994C163.064 88.2854 154.927 89.0534 150.032 84.4284L149.795 84.2044C146.647 81.2314 145.938 76.3004 147.568 72.4384C149.058 68.9064 152.182 66.5194 155.98 66.0084Z" fill="black"/>
</svg>
