<svg width="289" height="294" viewBox="0 0 289 294" fill="none" xmlns="http://www.w3.org/2000/svg">
<path fill-rule="evenodd" clip-rule="evenodd" d="M176.03 240.143C169.638 240.195 162.452 237.796 157.648 235.918L156.395 235.422C152.236 233.756 147.965 231.844 144.779 228.635C143.761 227.593 142.676 226.413 142.125 225.172C141.803 224.445 141.668 223.692 141.98 222.944C143.132 222.831 144.224 222.684 145.258 222.495C145.75 222.405 146.222 222.312 146.583 222.309C147.916 222.301 149.234 222.47 150.552 222.637C150.743 222.661 150.933 222.685 151.124 222.709C152.15 222.836 153.17 222.973 154.189 223.109C157.153 223.508 160.101 223.902 163.107 224.046C165.278 224.15 167.554 224.028 169.85 223.903C175.805 223.579 181.963 223.137 186.551 227.308C187.753 228.401 188.255 229.777 188.255 231.179C188.255 232.882 187.538 234.616 186.445 235.976C183.968 239.056 180.156 240.109 176.03 240.143ZM210.882 186.423C208.102 190.594 203.469 193.277 197.121 192.985C184.504 192.409 169.447 187.648 158.88 180.765C156.128 178.973 154.344 176.108 154.024 173.039L153.455 167.578L150.378 172.126C150.058 172.599 149.734 173.072 149.411 173.545C148.52 174.846 147.63 176.148 146.79 177.482C143.566 182.604 140.611 187.777 137.928 193.203C136.028 197.045 134.639 201.342 133.246 205.677C130.895 212.996 128.623 220.195 123.599 225.339C122.839 226.117 121.671 226.396 120.602 226.258C119.66 226.137 118.737 225.675 118.284 224.755C112.281 212.547 120.356 197.836 126.906 187.609L127.598 186.541C133.672 177.299 143.591 165.068 154.951 163.405L156.252 165.479L158.142 164.218C161.235 162.156 165.317 162.252 168.891 163.865L172.465 165.478C179.118 168.464 185.681 171.219 192.879 172.728C193.404 172.838 193.928 172.94 194.451 173.036C194.945 173.126 195.442 173.21 195.942 173.288C195.834 172.797 195.719 172.309 195.604 171.822C195.482 171.306 195.359 170.79 195.227 170.275C195.091 169.743 194.946 169.214 194.801 168.688C194.225 166.588 193.573 164.507 192.801 162.47C189.894 154.811 185.254 147.647 180.738 140.815L180.207 140.011C179.56 139.032 178.851 138.011 178.117 136.954C174.596 131.884 170.692 126.381 170.415 120.858C175.089 121.152 179 124.056 182.442 126.584C187.167 130.051 191.545 134.016 195.517 138.323C203.221 146.679 210.136 157.362 213.168 168.406C214.904 174.73 214.14 181.534 210.882 186.423ZM87.6173 123.422L87.616 123.197C87.63 116.82 91.344 102.261 100.524 102.261C106.259 102.261 109.741 112.169 110.344 122.384L110.365 122.801C110.631 129.151 108.888 143.032 100.524 143.032C92.0716 143.032 87.7042 129.885 87.6173 123.422ZM222.773 121.422L222.774 121.197C222.76 114.82 219.046 100.261 209.866 100.261C204.274 100.261 200.824 109.68 200.097 119.619L200.046 120.384C199.684 126.52 201.314 141.032 209.866 141.032C218.318 141.032 222.686 127.885 222.773 121.422ZM118.534 80.2666C117.318 80.4092 116.107 80.596 114.897 80.7882C111.367 81.3506 107.856 82.0256 104.369 82.8123C97.7468 84.3075 91.1773 86.1952 84.7333 88.3285C78.7033 90.3255 72.7672 92.5822 66.8325 94.8388C66.5158 94.9592 66.1991 95.0796 65.8823 95.2001C63.7869 95.9968 61.6984 96.8895 59.6036 97.7852C56.4154 99.1484 53.2127 100.521 49.9443 101.555C58.5551 89.6488 71.8238 80.827 84.5909 74.5142C91.8753 70.9124 99.6033 68.008 107.377 65.6281L111.706 64.3273C118.081 62.4465 125.051 60.7093 131.039 64.4593C133.407 65.9425 134.919 68.248 135.395 70.7405C135.861 73.1848 135.329 75.8056 133.641 77.9928C132.17 79.8981 130.338 80.9833 128.388 81.3552C126.235 81.7656 123.953 81.3148 121.877 80.2057C120.213 80.0818 119.722 80.1266 119.23 80.1813L118.534 80.2666ZM214.432 81.4779C210.166 80.5504 205.941 80.178 201.564 80.3115C199.584 80.371 197.669 80.6768 195.759 80.9845C192.793 81.4624 189.838 81.956 186.642 81.3762C184.975 81.0734 183.555 80.0982 182.458 78.8252C181.176 77.337 180.328 75.4349 180.056 73.6263C179.775 71.7581 180.054 70.1243 180.745 68.6815C181.562 66.9771 182.938 65.5407 184.6 64.2824C189.631 60.4737 198.263 61.3897 204.201 62.1597C210.068 62.9225 215.903 64.7419 221.09 67.6315C226.207 70.4839 230.655 74.326 234.126 79.0224C237.052 82.981 238.43 87.5369 239.854 92.1758C233.159 86.5596 222.913 83.319 214.432 81.4779Z" fill="black"/>
</svg>
