<svg width="289" height="294" viewBox="0 0 289 294" fill="none" xmlns="http://www.w3.org/2000/svg">
<path fill-rule="evenodd" clip-rule="evenodd" d="M156.465 188.981C177.02 188.167 215.078 191.935 230.601 204.091C246.566 216.127 226.539 254.885 224.298 254.801C201.356 253.94 178.614 257.228 155.936 260.281L151.37 260.896C136.067 263.004 114.734 266.708 107.463 249.052C98.4366 218.505 125.779 188.84 156.465 188.981ZM192.686 201.927C180.508 200.096 168.154 199.816 155.756 201.053C144.723 202.155 134.344 205.165 127.437 213.539C129.097 213.818 130.567 215.043 131.575 216.674C146.367 217.123 161.649 216.473 176.616 217.258C184.981 217.441 193.566 218.332 201.918 217.942C209.116 217.606 207.138 211.584 208.147 206.499C203.381 204.36 197.671 202.687 192.686 201.927ZM58.0328 86.113C72.8018 61.733 117.406 76.936 139.755 81.95C156.908 78.216 158.634 106.748 140.784 103.778C150.496 117.851 146.757 136.258 133.626 146.975C99.3968 175.503 36.5568 128.898 79.9388 95.64C80.4338 91.461 85.9588 90.273 89.2218 88.685L88.0546 88.4112C78.5173 86.2037 68.8612 84.7388 59.3898 87.895C58.4278 87.952 57.8528 86.955 58.0328 86.113ZM178.814 136.867C186.366 141.457 197.872 152.16 189.748 163.539C180.186 173.573 166.418 162.069 159.634 156.866C153.343 152.834 146.275 163.204 152.112 167.913C201.136 204.208 221.031 138.067 182.634 131.47C178.406 130.743 176.836 135.447 178.814 136.867ZM256.462 59.5034C257.007 59.4434 257.238 60.2014 256.894 60.5444C247.582 69.7394 235.949 76.4794 225.53 84.3244C242.335 85.6364 257.664 98.4654 262.875 114.373C267.508 139.669 230.96 151.3 211.45 143.66C195.354 138.104 183.683 122.482 192.461 105.894C183.279 105.983 173.989 93.9674 180.758 87.0554C186.757 80.9284 193.734 84.6384 196.446 83.1894L199.352 81.6404C217.464 72.0168 236.244 62.7637 256.462 59.5034ZM131.75 110.864C120.109 92.567 74.4368 92.243 75.6628 120.456C77.5078 157.748 151.347 149.289 131.75 110.864ZM225.991 95.2384C217.404 93.4014 209.878 103.255 205.063 100.715C177.836 131.796 233.24 149.651 251.384 125.898C261.313 113.069 238.157 95.5204 225.991 95.2384ZM110.91 112.448C122.181 108.34 122.088 125.048 113.746 128.35C104.206 132.101 101.042 112.221 110.91 112.448ZM212.13 114.245C211.537 103.996 226.979 99.325 230.862 109.46C236.34 123.207 212.939 130.089 212.13 114.245Z" fill="black"/>
</svg>
