<svg width="289" height="294" viewBox="0 0 289 294" fill="none" xmlns="http://www.w3.org/2000/svg">
<path fill-rule="evenodd" clip-rule="evenodd" d="M157.853 261.589L159.987 261.022C167.626 258.941 175.554 255.637 182.849 260.165C185.483 261.8 185.88 265.277 183.798 267.527C177.889 273.911 169.166 272.673 161.175 272.737L160.783 272.741C152.743 272.852 144.763 272.451 136.806 271.298C135.757 271.146 135.55 269.403 136.503 268.985C143.431 265.948 150.556 263.553 157.853 261.589ZM170.814 144.867C178.366 149.457 189.872 160.16 181.748 171.54C172.186 181.573 158.419 170.069 151.634 164.866C145.344 160.834 138.276 171.205 144.112 175.913C193.136 212.208 213.031 146.067 174.634 139.47C170.406 138.743 168.836 143.447 170.814 144.867ZM223.316 84.5053C235.498 84.1323 235.509 103.485 223.316 103.433C219.676 103.417 216.036 103.416 212.396 103.408C214.511 111.119 213.303 120.314 209.483 126.791C206.963 131.066 200.932 131.843 197.409 128.347C191.327 122.311 190.128 113.484 192.277 105.48L191.835 104.433C191.691 104.09 191.588 103.743 191.504 103.394C179.739 103.404 167.974 103.433 156.208 103.452L138.56 103.47C127.102 103.474 115.639 103.567 104.18 103.46C104.321 103.673 104.462 103.885 104.577 104.128C105.292 105.633 105.595 107.533 105.82 109.16C106.204 111.952 106.158 114.959 105.718 117.74C105.397 119.772 104.807 122.192 103.676 124.107L103.669 124.147C103.136 126.419 102.463 128.594 100.706 130.233C100.178 130.724 99.6635 131.074 99.1195 131.322C98.0925 132.397 96.7705 133.108 95.0335 133.131C94.1115 133.141 93.1005 132.872 92.1205 132.49C90.6135 132.616 89.0575 131.934 87.7245 131.33C86.6555 130.845 85.6745 130.201 84.8835 129.361C84.5125 129.273 84.1385 129.128 83.7645 128.897C81.4725 127.487 80.5965 124.661 80.4775 122.109C80.4695 121.954 80.4755 121.791 80.4705 121.634C80.3855 121.288 80.3095 120.94 80.2515 120.59C79.4895 116.055 80.4155 110.948 81.3855 106.541C81.6295 105.438 81.8305 104.157 82.1295 102.918C79.8425 102.829 77.5575 102.741 75.2705 102.647C69.5425 102.413 62.5515 103.18 57.2525 100.759C56.8665 100.584 56.9705 100.07 57.2525 99.8693C62.1447 96.3722 69.7459 95.8063 75.6378 94.6546L76.1385 94.5543C83.1645 93.1133 90.1865 91.9013 97.2835 90.8663C110.944 88.8743 124.78 87.8023 138.56 87.0303C166.773 85.4503 195.074 85.3683 223.316 84.5053Z" fill="black"/>
</svg>
