<svg width="289" height="294" viewBox="0 0 289 294" fill="none" xmlns="http://www.w3.org/2000/svg">
<path fill-rule="evenodd" clip-rule="evenodd" d="M93.3465 186.977C110.489 184.897 127.105 190.145 143.863 192.79C152.711 194.186 161.57 195.228 170.523 195.616C172.324 195.694 174.127 195.74 175.929 195.777C176.096 194.191 176.984 192.734 178.908 191.861C182.852 190.074 186.008 189.268 190.338 189.44C194.301 189.597 198.278 190.004 202.181 190.718C209.268 192.018 216.386 194.966 221.57 200.089C233.567 211.942 231.741 230.981 222.471 243.891C203.319 270.569 168.364 271.807 138.426 271.459L135.663 271.423C108.404 271.033 69.4041 275.097 57.0198 244.084C52.4656 232.679 53.0982 219.46 58.6742 208.521C65.3249 195.474 79.3247 188.679 93.3465 186.977ZM178.495 231.395L178.251 231.405C165.683 231.89 153.117 232.23 140.542 232.453C140.918 235.682 141.302 238.912 141.741 242.135C142.086 244.67 142.455 247.203 142.839 249.733C143.002 250.804 143.598 252.467 143.43 253.528L143.369 253.948C144.014 254.24 144.6 254.71 145.036 255.393C145.188 255.629 145.298 255.867 145.407 256.104C155.17 256.181 165.677 255.992 175.629 254.217L175.649 254.001C175.83 252.729 176.359 251.873 177.061 251.287C177.761 247.232 177.697 242.912 177.967 238.889C178.136 236.39 178.318 233.893 178.495 231.395ZM130.938 232.624C121.879 232.778 112.816 232.897 103.759 232.786L99.6479 232.723C100.516 237.381 101.461 242.023 102.246 246.712C103.066 251.599 98.7638 254.706 95.0409 254.581C95.459 254.649 95.8761 254.72 96.2942 254.779C107.926 256.424 120.004 255.988 131.809 255.975C131.174 252.268 131.431 248.085 131.336 244.991L131.318 244.512C131.137 240.547 131.01 236.586 130.938 232.624ZM69.4061 231.769C69.7204 234.191 70.3321 236.562 71.2471 238.769C75.1138 248.093 83.9787 252.444 93.3585 254.277C91.731 253.715 90.4388 252.365 90.1125 250.052C89.2992 244.302 89.0069 238.456 88.9849 232.617C82.448 232.556 75.8672 232.417 69.4061 231.769ZM212.585 229.778C207.931 230.876 202.522 230.373 197.956 230.58C193.678 230.775 189.399 230.944 185.121 231.117C185.322 234.038 185.519 236.957 185.733 239.876C186.008 243.648 186.034 247.635 186.756 251.391C195.366 248.453 203.08 243.741 208.868 236.206C210.31 234.329 211.601 232.126 212.585 229.778ZM91.3798 202.276C83.6324 204.11 76.3002 207.985 72.3597 215.074C70.0208 219.281 68.992 224.267 69.1896 229.18C75.7375 228.418 82.3981 228.129 89.0268 227.89C89.0488 226.696 89.0769 225.504 89.1128 224.314L89.2149 221.265C89.3956 215.448 89.4864 208.144 91.3798 202.276ZM131.479 202.985L128.069 202.602C118.596 201.523 109.128 200.39 99.6549 201.039C98.2839 201.134 96.8919 201.283 95.4969 201.488C97.1713 207.53 97.0306 214.626 97.7301 220.607C98.0005 222.92 98.3418 225.214 98.7199 227.499L100.363 227.422C110.529 226.871 120.704 226.532 130.877 226.128C130.876 224.218 130.886 222.307 130.917 220.395L130.955 218.483C131.07 213.6 130.755 208.099 131.479 202.985ZM179.049 202.21C169.127 203.811 158.873 204.152 149.127 204.164C145.235 204.169 141.344 203.93 137.456 203.585C137.709 205.655 137.841 207.75 138.031 209.792C138.415 213.917 138.854 218.037 139.331 222.153L139.757 225.754C152.261 225.187 164.764 224.574 177.265 223.939L179.029 223.845L179.523 216.924C179.86 212.309 180.23 207.695 180.753 203.101L180.361 202.959C179.9 202.77 179.463 202.509 179.049 202.21ZM183.358 203.928C183.904 210.453 184.207 217.005 184.609 223.542L192.85 223.102C194.224 223.027 195.597 222.95 196.97 222.871C202.311 222.563 209.173 220.946 214.453 222.455C214.856 217.655 213.484 212.979 209.152 209.755C201.547 204.091 191.864 206.108 183.358 203.928ZM155.201 145.594C167.473 138.566 198.264 131.383 200.214 153.468C201.11 163.631 193.555 172.052 184.732 175.81L184.401 175.948C176.126 179.35 161.459 183.192 154.298 175.815C148.338 169.675 156.243 158.666 163.649 163.696C167.455 166.28 175.466 164.376 179.713 163.147L179.979 163.069C184.562 161.722 190.672 157.411 188.777 151.768C187.1 146.776 179.964 145.864 175.495 145.702C168.824 145.463 162.332 147.012 155.722 147.516C154.675 147.596 154.352 146.08 155.201 145.594ZM206.036 110.082C222.692 109.302 233.053 127.488 229.223 142.389C228.561 144.96 225.685 147.484 222.909 147.195L222.209 147.13C221.854 147.096 221.497 147.051 221.169 146.961C218.533 146.231 216.17 143.489 216.362 140.647L216.413 139.818C216.801 132.779 216.038 124.669 207.673 122.965C200.578 121.519 196.617 128.348 196.533 134.634C196.517 135.75 195.263 136.529 194.276 135.929C189.147 132.808 188.259 126.599 190.218 121.252C192.701 114.477 198.915 110.415 206.036 110.082ZM82.4327 113.982C94.5537 109.938 107.631 116.399 113.5 127.115C115.559 127.711 117.615 129.298 117.329 131.728C116.916 135.224 116.294 137.428 113.87 140.079C110.078 144.226 102.977 142.106 101.402 137L101.335 136.77C99.5447 130.171 92.2807 125.817 85.6637 128.127C77.9337 130.825 78.1577 138.989 72.7357 143.745C72.0987 144.304 71.3347 144.393 70.5707 144.024C64.8117 141.241 65.8467 132.865 67.8997 128.071C70.5927 121.78 75.8267 116.185 82.4327 113.982ZM65.9252 77.1746C75.7472 67.1526 101.359 57.4546 108.078 75.9616C109.358 79.4866 106.633 84.2396 102.963 84.9706C96.9532 86.1666 91.6212 83.5576 85.6512 84.0256C80.8182 84.4066 75.7772 86.0216 71.9132 89.0156C61.2112 97.3076 58.8572 111.333 51.4002 121.887C51.0372 122.401 50.3322 122.185 50.2652 121.579C48.5672 106.214 55.1672 88.1506 65.9252 77.1746ZM194.02 67.3087C200.538 65.0067 207.919 65.2037 214.471 67.2457C221.071 69.3037 227.13 73.2117 231.798 78.3177C233.916 80.6357 235.876 83.1937 237.448 85.9167C238.283 87.3597 239.161 90.3407 240.11 92.1157C245.245 95.0801 247.439 101.835 242.843 106.641L242.635 106.852L242.02 107.462C239.549 109.908 235.823 110.968 232.45 109.991C224.902 107.807 223.985 101.862 221.372 95.5517C219.646 91.3837 216.689 87.6957 213.104 84.9867C204.631 78.5867 190.738 76.5477 180.537 79.5637C179.994 79.7247 179.356 79.0327 179.743 78.5307C181.676 76.0267 182.79 73.9717 185.378 71.9517C188.005 69.9017 190.872 68.4207 194.02 67.3087Z" fill="black"/>
</svg>
