<svg width="289" height="294" viewBox="0 0 289 294" fill="none" xmlns="http://www.w3.org/2000/svg">
<path fill-rule="evenodd" clip-rule="evenodd" d="M170.814 144.867C178.366 149.457 189.872 160.16 181.748 171.539C172.186 181.573 158.418 170.069 151.634 164.866C145.343 160.834 138.275 171.204 144.112 175.913C193.136 212.208 213.031 146.067 174.634 139.47C170.406 138.743 168.836 143.447 170.814 144.867ZM102.588 57.3302L104.465 57.0016L105.427 56.8385C111.052 55.9087 117.718 55.2867 121.603 59.7012C123.782 62.1772 124.532 66.7792 121.603 69.1492C116.451 73.3192 110.755 71.7032 104.581 72.0562C99.4928 72.3482 94.6028 73.1902 89.7018 74.5912C78.9498 77.6642 70.1888 83.2742 61.0058 89.4342C59.8008 90.2422 58.5708 88.7012 59.1458 87.5742C64.4468 77.1912 74.72 68.6622 85.01 63.4632C90.502 60.6882 96.5118 58.3862 102.588 57.3302ZM152.325 200.771C168.757 201.964 204.367 194.12 219.153 205.886C274.88 275.473 53.95 293.364 77.81 216.377C93.007 191.484 127.962 201.489 152.325 200.771ZM149.508 242.78C145.444 242.449 140.512 245.668 139.319 248.155C138.126 250.643 138.587 255.9 138.623 256.811C145.728 257.527 152.895 257.636 160.02 257.169C158.169 251.046 158.109 243.707 149.508 242.78ZM182.314 253.052C181.172 245.452 175.736 243.652 171.336 244.793C166.835 245.959 164.193 251.14 164.479 255.753C164.498 256.071 164.314 256.341 164.193 256.597C170.311 255.874 176.372 254.684 182.314 253.052ZM131.92 244.156C129.358 240.258 123.236 238.377 119.315 239.064C112.912 240.412 112.154 248.548 112.154 250.206C118.057 252.456 124.324 253.95 130.316 255.14C131.519 255.378 132.725 255.591 133.933 255.792L134.012 254.804C134.157 252.687 134.266 247.724 131.92 244.156ZM204.349 243.513C197.784 233.356 183.672 240.628 184.838 251.724C186.092 251.329 187.34 250.916 188.582 250.483C193.74 248.685 199.398 246.548 204.349 243.513ZM152.664 208.517C143.832 207.722 136.587 207.99 130.827 209.058L130.652 210.982C130.015 217.653 129.193 224.212 132.696 226.896C135.541 229.076 144.984 228.868 151.316 227.29C152.88 226.896 154.913 213.06 152.664 208.517ZM166.321 207.722C164.905 214.296 164.24 222.279 167.082 224.65C170.083 227.154 179.744 226.815 182.271 225.147C184.482 223.687 184.426 216.973 183.605 209.436C178.712 208.283 170.192 207.722 166.321 207.722ZM126.921 209.124L124.029 209.15L122.392 209.171C118.253 209.245 113.787 209.483 109.566 210.405C101.18 228.528 131.805 231.656 127.075 209.794L126.921 209.124ZM187.501 209.561L187.448 210.587C187.196 215.678 187.363 222.382 190.183 224.192C194.333 226.855 202.126 226.341 206.347 214.022C204.95 210.347 190.134 209.83 187.501 209.561ZM106.224 101.5C107.997 101.5 109.693 102.102 111.237 103.215C112.758 104.312 114.134 105.911 115.28 107.907C117.449 111.682 118.805 116.896 118.805 122.66C118.805 128.424 117.449 133.638 115.28 137.413C114.134 139.409 112.758 141.008 111.237 142.104C109.693 143.218 107.997 143.82 106.224 143.82C104.451 143.82 102.755 143.218 101.21 142.104C99.69 141.008 98.3138 139.409 97.1676 137.413C94.9987 133.638 93.6427 128.424 93.6427 122.66C93.6427 116.896 94.9987 111.682 97.1676 107.907C98.3138 105.911 99.69 104.312 101.21 103.215C102.755 102.102 104.451 101.5 106.224 101.5ZM218.464 101.5C220.237 101.5 221.933 102.102 223.478 103.215C224.998 104.312 226.374 105.911 227.52 107.907C229.689 111.682 231.045 116.896 231.045 122.66C231.045 128.424 229.689 133.638 227.52 137.413C226.374 139.409 224.998 141.008 223.478 142.104C221.933 143.218 220.237 143.82 218.464 143.82C216.691 143.82 214.995 143.218 213.45 142.104C211.93 141.008 210.554 139.409 209.408 137.413C207.239 133.638 205.883 128.424 205.883 122.66C205.883 116.896 207.239 111.682 209.408 107.907C210.554 105.911 211.93 104.312 213.45 103.215C214.995 102.102 216.691 101.5 218.464 101.5ZM203.193 52.6791L204.63 52.9732L205.583 53.1753C221.083 56.5092 240.733 63.0814 247.988 78.1306C248.271 80.3025 247.972 80.7679 247.73 81.072L247.649 81.1733C247.45 81.4329 247.29 81.7909 246.349 82.0865C246.088 82.0243 245.824 81.9584 245.557 81.8885C242.163 80.999 239.477 79.7735 236.877 78.502L234.058 77.1132C230.788 75.5096 227.488 73.9643 223.992 72.8235C216.53 70.3896 208.854 68.675 201.06 67.7595C199.37 67.5612 197.744 66.9911 196.46 66.0139C195.242 65.0864 194.311 63.8022 193.887 62.0953C193.337 59.8862 193.495 58.2137 194.68 56.2208C195.572 54.7242 196.847 53.6868 198.311 53.0912C199.804 52.4839 201.503 52.3407 203.193 52.6791Z" fill="black"/>
</svg>
