<svg width="289" height="294" viewBox="0 0 289 294" fill="none" xmlns="http://www.w3.org/2000/svg">
<path fill-rule="evenodd" clip-rule="evenodd" d="M168.365 196.017C180.755 195.957 199.315 195.597 211.695 196.327C215.265 196.537 217.025 201.637 217.275 204.057C219.645 226.547 201.685 244.487 181.855 251.437C163.455 257.887 139.155 259.107 122.745 247.057C115.615 241.827 110.215 234.577 106.695 226.507C104.795 222.157 103.405 217.647 102.635 212.967C102.045 209.397 100.925 204.587 102.235 201.077C104.035 196.287 109.045 196.627 113.335 196.547C119.255 196.427 125.175 196.276 131.085 196.207C143.515 196.066 155.945 196.066 168.365 196.017ZM202.735 202.566C197.165 203.167 135.665 203.606 126.165 203.816C124.735 203.847 123.235 203.816 121.715 203.776C120.662 207.034 123.395 213.742 126.335 214.907C129.275 216.071 154.135 217.214 168.815 216.544C178.825 216.094 204.791 210.026 204.791 207.423C204.791 204.819 203.685 202.467 202.735 202.566ZM78.3439 144.876C80.2569 143.864 82.0459 145.174 82.2939 147.142C82.7929 151.093 80.7069 155.223 80.6019 159.292C80.4889 163.643 80.9619 167.99 80.8159 172.341C80.5609 179.94 78.2909 187.569 73.9009 193.827C68.6609 201.296 54.8399 209.453 48.2439 198.641C43.5009 190.867 47.2289 179.529 50.6809 172.028C53.3879 166.148 57.3249 160.711 61.7349 155.989C64.6699 152.845 70.8389 145.763 75.5809 146.475C75.7629 146.502 75.8449 146.721 75.8099 146.879C75.7779 147.018 75.7249 147.141 75.6819 147.273C76.3679 146.296 77.2309 145.464 78.3439 144.876ZM74.7329 148.959C73.8919 149.962 72.7489 150.764 71.7809 151.745C69.7219 153.831 67.6759 155.925 65.8299 158.206C62.4649 162.363 59.6869 167.008 57.4839 171.876C54.8569 177.678 50.5309 187.625 53.6159 194.076C55.2699 197.533 59.5259 196.913 62.3959 195.23C67.7579 192.087 70.9209 185.38 72.4229 179.612C74.0979 173.178 73.1189 166.649 73.1499 160.1C73.1649 156.755 73.2259 152.341 74.7329 148.959ZM230.999 134.683C231.091 132.21 233.572 130.896 235.725 131.971C239.414 133.814 240.97 137.558 243.007 140.991C245.369 144.972 247.732 148.954 250.094 152.935C254.262 159.96 259.952 167.457 262.052 175.446C265.156 187.254 254.91 195.92 243.553 193.384C231.702 190.738 227.302 176.956 227.552 166.191C227.683 160.556 228.998 154.833 230.108 149.33C230.761 146.092 230.986 142.575 231.824 139.328C231.268 137.792 230.941 136.238 230.999 134.683ZM170.814 144.867C168.836 143.447 170.406 138.743 174.634 139.47C213.031 146.067 193.136 212.208 144.112 175.913C138.275 171.204 145.343 160.834 151.634 164.866C158.418 170.069 172.186 181.573 181.748 171.539C189.872 160.16 178.366 149.457 170.814 144.867ZM236.753 148.025C236.279 151.187 235.57 154.229 235.241 156.475C233.944 165.316 233.025 176.798 240.333 183.486C243.426 186.317 248.8 187.366 252.394 184.695C257.651 180.789 252.132 173.277 249.679 169.265C246.055 163.339 242.486 157.384 238.941 151.411C238.299 150.329 237.54 149.195 236.753 148.025ZM96.1223 102.097C108.677 100.067 122.26 108.336 126.643 120.255C127.749 123.262 125.912 126.986 123.279 128.524C120.241 130.298 116.994 129.438 114.406 127.379C110.928 124.613 109.274 120.17 105.454 117.656C102.222 115.528 97.8903 115.416 94.1743 116.031C85.4363 117.477 78.5683 123.116 70.5873 126.41C69.4683 126.872 68.8133 125.437 69.1893 124.592C74.0233 113.728 84.1163 104.038 96.1223 102.097ZM217.841 101.606C227.876 100.745 239.833 105.092 243.007 115.418C243.083 115.666 242.822 115.958 242.563 115.862C236.491 113.611 229.776 112.243 223.285 113.388C219.105 114.126 210.854 117.085 210.538 121.88C210.049 129.274 201.471 131.093 197.292 125.467C193.228 119.995 196.725 112.511 201.215 108.556C205.923 104.41 211.631 102.139 217.841 101.606ZM121.603 59.7012C123.782 62.1772 124.532 66.7792 121.603 69.1492C116.451 73.3192 110.755 71.7032 104.581 72.0562C99.4928 72.3482 94.6028 73.1902 89.7018 74.5912C78.9498 77.6642 70.1888 83.2742 61.0058 89.4342C59.8008 90.2422 58.5708 88.7012 59.1458 87.5742C64.4468 77.1912 74.7198 68.6622 85.0098 63.4632C90.5018 60.6882 96.5118 58.3862 102.588 57.3302L104.465 57.0016C110.273 55.9972 117.494 55.032 121.603 59.7012ZM203.193 52.6791L204.63 52.9732C220.267 56.2418 240.583 62.7711 247.988 78.1306C248.271 80.3025 247.972 80.7679 247.73 81.072L247.649 81.1733C247.449 81.4329 247.29 81.7909 246.349 82.0865C246.087 82.0243 245.824 81.9584 245.557 81.8885C242.163 80.999 239.477 79.7735 236.877 78.502L234.058 77.1132C230.788 75.5096 227.488 73.9643 223.992 72.8235C216.529 70.3896 208.854 68.675 201.06 67.7595C199.37 67.5612 197.744 66.9911 196.46 66.0139C195.242 65.0864 194.311 63.8022 193.887 62.0953C193.337 59.8862 193.495 58.2137 194.68 56.2208C195.572 54.7242 196.847 53.6868 198.311 53.0912C199.804 52.4839 201.503 52.3407 203.193 52.6791Z" fill="black"/>
</svg>
