<svg width="289" height="294" viewBox="0 0 289 294" fill="none" xmlns="http://www.w3.org/2000/svg">
<path fill-rule="evenodd" clip-rule="evenodd" d="M146.587 241.426C139.864 238.684 133.866 234.11 129.481 228.266C127.957 226.235 127.561 224.089 127.881 222.127C128.241 219.921 129.546 217.922 131.326 216.58C133.112 215.235 135.345 214.572 137.504 214.91C139.381 215.204 141.248 216.231 142.727 218.362L143.035 218.788C145.642 222.315 149.04 225.208 152.91 227.074C156.641 228.871 160.814 229.711 165.132 229.223C173.356 228.294 179.024 223.846 185.049 217.806C185.796 217.044 186.543 216.257 187.294 215.458C187.768 214.734 188.426 214.268 189.157 214.024C189.968 213.753 190.886 213.768 191.726 214.062C192.537 214.345 193.262 214.881 193.747 215.594C194.209 216.272 194.471 217.11 194.386 218.074C193.835 224.333 190.562 229.919 185.914 234.305C180.752 239.177 173.908 242.547 167.466 243.729C160.368 245.031 153.136 244.098 146.587 241.426ZM170.814 144.867C178.366 149.457 189.872 160.16 181.748 171.539C172.186 181.573 158.418 170.069 151.634 164.866C145.343 160.834 138.275 171.204 144.112 175.913C193.136 212.208 213.031 146.067 174.634 139.47C170.406 138.743 168.836 143.447 170.814 144.867ZM82.9634 102.646C83.7977 92.2899 99.5702 89.9381 101.139 100.186C102.544 109.366 100.89 117.799 96.7552 126.064C92.8042 133.96 82.8738 130.276 82.1228 123.086C81.1161 113.448 82.4444 109.088 82.9634 102.646ZM203.027 98.0612C205.226 95.1812 208.401 93.2152 212.205 94.3262C224.09 97.7992 220.587 114.672 216.413 122.885C214.145 127.345 206.814 128.476 203.501 124.549C198.101 118.145 195.515 105.356 202.38 99.0482C202.566 98.7222 202.773 98.3932 203.027 98.0612ZM96.5878 57.3302L98.4652 57.0016C104.273 55.9972 111.494 55.032 115.603 59.7012C117.782 62.1772 118.532 66.7792 115.603 69.1492C110.451 73.3192 104.755 71.7032 98.5808 72.0562C93.4928 72.3482 88.6028 73.1902 83.7018 74.5912C72.9498 77.6642 64.1888 83.2742 55.0058 89.4342C53.8008 90.2422 52.5708 88.7012 53.1458 87.5742C58.4468 77.1912 68.72 68.6622 79.01 63.4632C84.502 60.6882 90.5118 58.3862 96.5878 57.3302ZM192.193 52.6791L193.63 52.9732C209.267 56.2418 229.583 62.7711 236.988 78.1306C237.271 80.3025 236.972 80.7679 236.73 81.072L236.649 81.1733C236.45 81.4329 236.29 81.7909 235.349 82.0865C235.088 82.0243 234.824 81.9584 234.557 81.8885C231.163 80.999 228.477 79.7735 225.877 78.502L223.058 77.1132C219.788 75.5096 216.488 73.9643 212.992 72.8235C205.53 70.3896 197.854 68.675 190.06 67.7595C188.37 67.5612 186.744 66.9911 185.46 66.0139C184.242 65.0864 183.311 63.8022 182.887 62.0953C182.337 59.8862 182.495 58.2137 183.68 56.2208C184.572 54.7242 185.847 53.6868 187.311 53.0912C188.804 52.4839 190.503 52.3407 192.193 52.6791Z" fill="black"/>
</svg>
