<svg width="289" height="294" viewBox="0 0 289 294" fill="none" xmlns="http://www.w3.org/2000/svg">
<path fill-rule="evenodd" clip-rule="evenodd" d="M182.162 218.443C175.819 215.391 168.563 215.602 161.911 217.621C154.037 220.013 147.065 224.981 140.86 230.27C138.439 232.334 136.139 234.665 133.829 237.008C130.895 239.985 127.951 242.991 124.682 245.428C125.76 236.245 132.204 226.92 137.737 220.175C144.526 211.902 153.98 205.196 164.2 201.953C175.084 198.498 186.314 200.397 195.128 206.006C203.862 211.564 210.223 220.769 211.505 232.026C211.774 234.391 210.669 236.555 209.029 238.195C207.116 240.108 204.43 241.368 201.925 241.368C199.369 241.368 197.102 240.338 195.42 238.697C193.657 236.975 192.531 234.586 192.37 231.991C192.262 229.225 191.621 226.803 189.297 223.885C187.736 221.926 184.801 219.713 182.162 218.443ZM198.289 121.801C195.657 122.758 192.599 125.069 191.71 127.599C191.515 128.156 191.405 128.725 191.396 129.302C190.539 127.561 190.213 125.51 190.325 123.481C190.679 117.035 196.827 112.357 202.064 109.623C203.925 108.651 205.837 108.006 207.743 107.666L214.488 106.463L208.155 103.848C202.314 101.437 196.837 98.1198 191.95 94.0593C187.281 90.183 182.965 85.1699 180.432 79.6384C179.288 77.1403 178.39 74.6965 177.761 72.0565L177.592 71.3149C177.283 69.8927 176.944 69.1673 176.564 68.3625C176.342 67.8902 176.099 67.3817 175.839 66.5549C175.693 66.0906 175.611 65.7019 175.747 65.3991C175.879 65.1061 176.199 64.9804 176.512 64.8621C178.579 64.0798 181.91 64.6128 183.324 65.1782C186.743 66.5448 189.748 69.5243 192.64 72.3147C194.051 73.6763 195.433 75.0067 196.806 76.1447C205.565 83.4066 216.498 87.5384 227.182 88.546L227.824 88.6028C230.65 88.8347 233.27 89.9475 235.126 91.8041C236.786 93.4639 237.811 95.7218 237.811 98.4261C237.811 101.06 236.626 103.596 234.784 105.437C233.026 107.195 230.648 108.335 228.066 108.243C226.252 108.179 224.452 108.016 222.664 107.777L216.014 106.886L221.091 111.272C222.099 112.143 223.046 113.142 223.899 114.302C228.525 120.601 230.511 130.205 230.339 137.915C230.306 139.386 229.9 140.904 229.15 142.211C228.495 143.353 227.574 144.339 226.386 144.954C224.965 145.692 223.762 146.085 222.143 146.116C220.383 146.151 218.892 145.594 217.667 144.661C216.135 143.495 215.01 141.775 214.237 139.898C213.21 137.402 213.149 134.767 213.047 132.132C212.977 130.311 212.901 128.487 212.598 126.69C212.165 124.395 211.127 121.47 209.818 120.547C207.885 119.183 202.743 120.233 199.549 121.35L198.289 121.801ZM170.815 144.866C178.366 149.456 189.872 160.159 181.748 171.539C172.186 181.572 158.419 170.068 151.634 164.865C145.344 160.833 138.276 171.203 144.112 175.912C193.136 212.207 213.031 146.066 174.634 139.469C170.406 138.742 168.836 143.446 170.815 144.866ZM117.254 130.295C115.19 127.967 113.18 125.797 110.076 124.561C106.403 123.097 101.953 122.94 98.1322 124.037C93.8006 125.28 90.3711 128.152 87.8303 131.819C85.598 135.042 84.0606 138.877 83.184 142.66C81.5477 140.862 80.7824 138.784 80.413 136.67C79.8048 133.19 80.2358 129.603 81.422 126.193C84.0629 118.599 90.4251 111.849 97.8436 108.943C106.314 105.625 116.794 106.733 124.575 111.404C128.545 113.789 133.12 117.926 135.425 121.972C136.999 124.738 137.09 127.601 136.089 130.06C134.988 132.768 132.611 134.967 129.576 136.07C128.139 136.593 126.659 136.552 125.255 136.18C123.428 135.697 121.721 134.666 120.329 133.464C119.169 132.464 118.202 131.365 117.254 130.295ZM129.91 82.4053C128.171 84.7314 125.611 85.9199 122.943 86.0447C122.67 86.0575 122.396 86.0591 122.124 86.0493C121.952 86.2472 121.76 86.4658 121.534 86.7229C121.013 87.316 120.672 87.7055 120.317 88.0835C119.034 89.449 117.686 90.7525 116.281 91.9927C113.153 94.7567 109.784 97.1812 106.139 99.2155C99.7558 102.782 92.7548 105.563 85.556 106.891C78.4123 108.208 71.3606 108.613 64.1671 107.581L62.4222 107.33C58.2668 106.721 52.8196 105.927 49.4072 103.353C50.7511 102.925 52.1124 102.904 53.4404 102.846C54.3145 102.807 55.1829 102.768 56.0297 102.69C60.0557 102.324 63.9681 101.656 67.866 100.577C75.4433 98.4803 82.3099 95.5845 88.9997 91.4342C95.5588 87.3665 101.582 81.8301 106.38 75.7655L106.955 75.0302C107.2 74.7135 107.441 74.3982 107.681 74.0852C109.644 71.5202 111.447 69.0758 114.496 67.4482C116.912 66.1592 119.357 65.8108 121.708 66.1817C124.436 66.6121 127.026 67.9854 129.321 69.9071C131.018 71.3279 131.803 73.3739 131.928 75.4723C132.075 77.9409 131.324 80.5122 129.91 82.4053Z" fill="black"/>
</svg>
