<svg width="289" height="294" viewBox="0 0 289 294" fill="none" xmlns="http://www.w3.org/2000/svg">
<path fill-rule="evenodd" clip-rule="evenodd" d="M155.884 251.432C163.443 250.38 171.571 246.099 178.791 249.578C182.166 251.204 183.768 256.765 181.486 259.856C178.001 264.577 174.403 265.358 168.746 265.812C164.505 266.152 160.241 266.177 156.011 265.688L154.935 265.556C147.387 264.582 139.542 262.475 133.695 257.403C132.499 256.365 133.112 254.123 134.647 253.799C141.591 252.338 148.855 252.411 155.884 251.432ZM146.987 234.026C146.984 233.965 147.077 233.965 147.08 234.026C147.263 238.346 148.477 242.351 150.721 246.047C150.752 246.1 150.671 246.147 150.64 246.095C148.395 242.396 147.17 238.35 146.987 234.026ZM170.814 144.867C178.366 149.457 189.872 160.16 181.748 171.54C172.186 181.573 158.419 170.069 151.634 164.866C145.343 160.834 138.275 171.205 144.112 175.913C193.136 212.208 213.031 146.068 174.634 139.471C170.406 138.744 168.836 143.447 170.814 144.867ZM209.464 93.5004C211.237 93.5004 212.933 94.1023 214.478 95.216C215.998 96.312 217.374 97.9118 218.52 99.907C220.689 103.683 222.045 108.896 222.045 114.66C222.045 120.425 220.689 125.638 218.52 129.414C217.374 131.409 215.998 133.009 214.478 134.105C212.933 135.219 211.237 135.82 209.464 135.82C207.691 135.82 205.995 135.219 204.45 134.105C202.93 133.009 201.554 131.409 200.408 129.414C198.239 125.638 196.883 120.425 196.883 114.66C196.883 108.896 198.239 103.683 200.408 99.907C201.554 97.9118 202.93 96.312 204.45 95.216C205.995 94.1023 207.691 93.5004 209.464 93.5004ZM127.347 99.38L128.014 99.2534C131.909 98.545 133.877 98.7835 137.269 101.438C139.818 103.433 139.088 107.362 137.269 109.46C134.1 113.116 131.005 112.468 126.665 112.608L126.36 112.619C122.743 112.766 119.123 112.869 115.503 112.924C114.513 112.94 113.522 112.936 112.532 112.942C112.637 122.103 107.355 129.078 100.399 134.381C95.9027 137.81 90.2157 133.854 88.6117 129.586C87.2847 126.054 86.9997 121.711 87.6877 117.844C87.9426 116.419 88.4738 114.871 89.2862 113.552L89.5147 113.198L89.4777 112.692C89.4687 112.567 89.4777 112.446 89.4737 112.321C83.0162 111.929 76.596 111.281 70.178 110.467L68.0387 110.19C62.5607 109.465 54.5157 109.232 50.0827 105.669C49.9427 105.555 49.9927 105.306 50.1407 105.227C52.5777 103.914 55.0502 103.989 57.7756 103.868L58.1667 103.849C61.1307 103.696 64.088 103.568 67.0503 103.467L70.0147 103.374C77.5967 103.157 85.1857 102.789 92.7607 102.386C94.0777 102.316 95.3947 102.233 96.7137 102.152C98.0927 101.574 99.5587 101.228 101.007 101.164C102.207 101.11 103.361 101.276 104.446 101.621C107.212 101.407 109.978 101.174 112.74 100.924L115.503 100.668C119.401 100.297 123.499 100.135 127.347 99.38ZM175.215 30.7198C183.548 26.6248 193.68 26.5248 202.262 29.9138L202.831 30.1441C211.499 33.741 221.943 42.0492 219.681 52.3978C217.612 61.8698 202.755 60.2648 202.002 51.3118C197.205 44.6658 186.448 43.2078 179.686 47.4338C175.585 49.9978 172.77 54.3148 170.846 58.6688C169.206 62.3768 168.897 66.9558 166.378 70.1858C166.296 70.2908 166.132 70.3098 166.013 70.2818C158.501 68.5438 158.327 56.6068 159.608 50.8168C161.469 42.3988 167.442 34.5418 175.215 30.7198Z" fill="black"/>
</svg>
