<svg width="289" height="294" viewBox="0 0 289 294" fill="none" xmlns="http://www.w3.org/2000/svg">
<path fill-rule="evenodd" clip-rule="evenodd" d="M189.06 229.611C195.38 228.138 200.344 233.49 199.102 239.653C197.787 246.177 190.772 248.413 184.89 248.208C178.221 247.977 171.557 246.6 164.855 246.323C157.97 246.039 151.059 245.987 144.17 246.173C137.798 246.345 131.258 247.468 124.936 246.46C122.474 246.067 122.707 242.817 124.309 241.662C129.065 238.232 135.229 236.834 140.835 235.395C146.551 233.927 152.394 232.803 158.256 232.117C164.199 231.422 170.191 231.075 176.173 231.007C178.896 230.976 182.235 231.581 184.89 231.091C186.243 230.84 187.621 229.947 189.06 229.611ZM170.814 144.867C178.366 149.457 189.872 160.16 181.748 171.54C172.186 181.573 158.419 170.069 151.634 164.866C145.344 160.834 138.276 171.205 144.112 175.913C193.136 212.208 213.031 146.067 174.634 139.47C170.406 138.743 168.836 143.447 170.814 144.867ZM116.059 110.592C126.16 108.912 127.927 123.312 117.916 124.318C115.815 124.529 113.726 124.713 111.641 124.896C111.844 125.548 111.979 126.219 112.053 126.909C112.148 127.495 112.219 128.117 112.282 128.828C112.599 132.371 110.087 136.055 107.152 137.773C104.102 139.558 99.7244 139.796 96.6954 137.773C95.1334 136.729 93.5734 135.552 92.7124 133.826C91.5574 132.053 90.9274 130.001 90.8634 127.895C86.2584 129.091 81.5694 130.708 76.9184 131.565C77.0894 131.733 77.2574 131.912 77.4204 132.109C77.5444 132.26 77.3744 132.543 77.1934 132.404L74.8604 131.887C74.1424 131.981 73.4244 132.058 72.7084 132.103L72.7254 132.04C71.5284 132.019 70.5484 130.604 71.6194 129.472C75.7286 125.128 82.1404 122.242 87.9861 119.828L93.6184 117.519C100.82 114.592 108.423 111.862 116.059 110.592ZM197.32 115.046C203.936 114.291 210.487 114.591 217.114 114.995C228.267 115.674 223.589 131.938 214.637 128.183C214.729 128.778 214.753 129.374 214.684 129.929C214.334 132.788 213.402 135.204 210.778 136.74C208.341 138.166 205.252 138.162 202.815 136.74C200.205 135.218 199.028 133.073 198.362 130.286C197.846 128.125 198.053 126.317 198.351 124.177C198.45 123.468 198.759 122.807 199.187 122.213C198.563 122.057 197.938 121.906 197.312 121.765C191.746 120.499 186.255 120.753 180.705 119.951C180.113 119.865 180.019 118.909 180.537 118.666C185.524 116.323 191.864 115.668 197.32 115.046ZM115.04 64.8154C118.858 63.3584 123.654 65.7816 125.603 69.1146C127.815 72.8966 126.87 77.2624 124.14 80.4494C119.952 85.3383 111.976 88.35 106.099 91.1397L105.627 91.3654C99.5906 94.2774 93.3896 96.9516 87.1046 99.2816C80.9236 101.574 74.4936 103.37 68.0856 104.912C64.7066 105.725 61.2556 106.397 57.8026 106.821C55.0766 107.155 52.9746 106.407 50.3666 106.407C49.9856 106.408 49.8666 105.903 50.1776 105.709C52.6146 104.177 54.4236 102.16 57.0816 100.741C59.8496 99.2645 62.6276 97.8124 65.4156 96.3744C71.0526 93.4684 76.4806 90.2344 81.9186 86.9794C87.6506 83.5484 93.2526 79.9354 98.7006 76.0674C104.032 72.2824 108.945 67.1404 115.04 64.8154ZM183.076 61.7035C187.844 60.7785 192.566 63.0345 193.977 67.8935C195.33 72.5486 193.915 73.5467 197.524 76.8777C200.401 79.5323 203.503 81.9016 206.634 84.2348L211.241 87.6601C219.586 93.8376 228.001 99.6783 237.596 103.847C238.407 104.199 237.938 105.404 237.169 105.42C221.915 105.714 207.288 103.649 193.519 96.8197C187.087 93.6297 180.625 89.5945 176.898 83.2265C172.581 75.8525 172.707 63.7135 183.076 61.7035Z" fill="black"/>
</svg>
