<svg width="289" height="294" viewBox="0 0 289 294" fill="none" xmlns="http://www.w3.org/2000/svg">
<path fill-rule="evenodd" clip-rule="evenodd" d="M195.648 206.243C187.261 201.79 177.421 202.543 169 206.521C158.706 211.384 150.747 219.369 143.697 228.15C140.99 231.521 138.458 235.036 135.928 238.548C134.887 239.994 133.846 241.439 132.794 242.872C132.589 243.141 132.363 243.43 132.125 243.737C130.44 245.902 128.139 248.897 127.259 251.615C126.905 252.706 126.774 253.759 126.933 254.719C127.009 255.183 127.152 255.628 127.37 256.049C126.026 256.396 125.129 256.065 124.509 255.398C123.526 254.341 123.182 252.754 123.168 250.932C123.118 244.406 127.421 234.892 129.178 230.972C129.359 230.568 129.514 230.222 129.636 229.943C135.991 215.403 146.156 201.24 160.288 193.403C173.98 185.81 190.185 184.375 204.351 191.553C220 199.484 224.27 215.187 226.043 231.326C226.315 233.799 225.196 236.079 223.476 237.799C221.534 239.741 218.806 240.998 216.256 240.998C213.608 240.998 211.184 239.877 209.412 238.105C207.624 236.317 206.495 233.864 206.475 231.206L206.458 229.658C206.376 224.269 205.998 219.21 204.042 214.919C202.469 211.469 199.895 208.499 195.648 206.243ZM174.814 133.867C182.365 138.457 193.871 149.16 185.748 160.54C176.186 170.573 162.418 159.069 155.634 153.866C149.343 149.834 142.275 160.205 148.112 164.913C197.135 201.208 217.03 135.068 178.633 128.471C174.406 127.744 172.836 132.447 174.814 133.867ZM111.25 135.374C109.215 136.37 106.96 136.774 104.748 136.313C102.767 135.899 100.831 134.789 99.1165 132.833C96.7626 130.144 95.0536 126.326 96.1956 122.683L96.5225 121.746C96.9092 120.656 97.43 119.635 98.0639 118.708C98.4708 116.724 98.5527 115.424 98.6296 114.19C98.6493 113.874 98.6686 113.563 98.6906 113.253C98.8125 111.525 99.0662 109.715 99.6463 108.051C99.7556 107.737 99.8771 107.427 100.008 107.121C99.6837 107.007 99.359 106.893 99.0345 106.778C96.7915 105.988 94.5555 105.185 92.3317 104.344C86.007 101.953 79.753 99.2576 73.6991 96.2416C70.708 94.751 67.7924 93.074 64.9137 91.3773C63.539 90.463 60.5235 88.3345 59.1711 87.1884L58.1449 86.3186L57.6078 87.552C57.0304 88.1336 56.5646 88.1788 56.173 88.0482C55.7521 87.9078 55.4402 87.576 55.2441 87.1774C55.008 86.6975 54.9343 86.1134 55.0589 85.5496C55.171 85.0417 55.4482 84.5513 55.9163 84.1651C57.6999 82.6943 60.2158 83.3328 62.3062 83.7427C62.6046 83.8012 62.8967 83.8585 63.1803 83.9103C66.431 84.5043 69.674 85.2117 72.9038 85.9418L76.7916 86.8276C78.2752 87.166 79.7583 87.5059 81.2412 87.8457C98.088 91.7066 114.906 95.5581 132.122 97.2505L133.936 97.4206C137.005 97.6946 139.736 98.9977 141.535 101.073C143.192 102.984 144.038 105.548 143.636 108.522C143.243 111.431 141.606 113.854 139.353 115.354C137.112 116.847 134.26 117.427 131.414 116.663C126.07 115.23 120.738 113.722 115.431 112.122L116.673 115.071C117.74 117.64 118.725 120.303 118.841 123.02C118.949 125.573 118.2 128.045 116.904 130.16C115.524 132.41 113.523 134.261 111.25 135.374ZM231.352 73.9297C230.034 75.7286 228.519 77.2651 227.01 78.8048C223.75 82.1304 220.491 85.4558 217 88.5493C215.734 89.6714 214.455 90.777 213.176 91.8828C212.701 92.2932 212.226 92.7037 211.751 93.115L211.005 93.7626L211.643 94.5169C211.815 94.7193 211.977 94.9284 212.112 95.1498C214.03 98.2894 215.095 101.697 216.173 105.115C216.912 107.456 217.654 109.803 218.65 112.083L218.972 112.797C220.269 115.588 220.618 118.5 219.929 121.129C219.28 123.604 217.705 125.814 215.179 127.423C214.544 127.828 213.46 128.298 212.726 128.461C209.831 129.103 206.9 128.656 204.504 127.296C202.213 125.995 200.418 123.858 199.621 121.055C198.446 116.915 197.69 112.708 197.73 108.607C197.737 107.913 197.767 107.216 197.817 106.517C197.36 106.981 196.835 107.39 196.239 107.727C194.383 108.775 192.287 108.878 190.315 108.343C188.085 107.738 186.007 106.321 184.569 104.468C183.302 102.837 182.527 100.861 182.627 98.7961C182.714 96.9933 183.475 95.1368 185.102 93.388L186.637 91.8246C187.779 90.6659 189.351 89.7746 191.026 89.324C192.564 88.9106 194.193 88.8662 195.656 89.365C197.627 88.8256 198.906 88.1896 200.093 87.5981C200.938 87.1769 201.736 86.7791 202.446 86.4695C205.909 84.9634 209.359 83.4282 212.798 81.8658C215.779 80.5097 218.807 79.258 221.835 78.006C225.026 76.6871 228.216 75.3677 231.352 73.9297Z" fill="black"/>
</svg>
