<svg width="300" height="300" viewBox="0 0 300 300" fill="none" xmlns="http://www.w3.org/2000/svg">
<g clip-path="url(#clip0_280_62)">
<mask id="mask0_280_62" style="mask-type:luminance" maskUnits="userSpaceOnUse" x="0" y="0" width="300" height="300">
<path d="M300 0H0V300H300V0Z" fill="white"/>
</mask>
<g mask="url(#mask0_280_62)">
<path d="M28.9035 0L30 1.13028L2.2575 28.1398L30 55.1494L28.9035 56.2797L0 28.1398L28.9035 0Z" fill="white"/>
<path d="M51.0965 56.2797L50 55.1494L77.7425 28.1398L50 1.13028L51.0965 0L80 28.1398L51.0965 56.2797Z" fill="white"/>
<path d="M8 85C11.866 85 15 81.866 15 78C15 74.134 11.866 71 8 71C4.13401 71 1 74.134 1 78C1 81.866 4.13401 85 8 85Z" fill="white"/>
<path d="M28 83C30.7614 83 33 80.7614 33 78C33 75.2386 30.7614 73 28 73C25.2386 73 23 75.2386 23 78C23 80.7614 25.2386 83 28 83Z" stroke="white" stroke-width="4"/>
<path d="M53 78L41 84.9282V71.0718L53 78Z" fill="white"/>
<path d="M71.389 71H67.611C67.2736 71 67 71.2394 67 71.5346V84.4654C67 84.7606 67.2736 85 67.611 85H71.389C71.7264 85 72 84.7606 72 84.4654V71.5346C72 71.2394 71.7264 71 71.389 71Z" fill="white"/>
<path d="M65.389 71H61.611C61.2736 71 61 71.2394 61 71.5346V84.4654C61 84.7606 61.2736 85 61.611 85H65.389C65.7264 85 66 84.7606 66 84.4654V71.5346C66 71.2394 65.7264 71 65.389 71Z" fill="white"/>
<path d="M13 94L1 106L13 118" stroke="black"/>
<path d="M1 106H29" stroke="black"/>
<path d="M52 118L64 106L52 94" stroke="black"/>
<path d="M64 106L36 106" stroke="black"/>
<path fill-rule="evenodd" clip-rule="evenodd" d="M84.563 130H61.436C60.643 130 60 130.644 60 131.437V154.564C60 155.357 60.644 156 61.437 156H73.89V145.965H70.492V142.01H73.872V139.122C73.872 135.761 75.92 133.932 78.916 133.932C79.935 133.934 80.952 133.992 81.964 134.105V137.612H79.892C78.264 137.612 77.949 138.383 77.949 139.519V142.029H81.849L81.343 145.964H77.949V156H84.563C84.7517 156 84.9386 155.963 85.1129 155.891C85.2873 155.818 85.4457 155.713 85.5791 155.579C85.7126 155.446 85.8184 155.287 85.8906 155.113C85.9628 154.939 86 154.752 86 154.563V131.436C86 131.247 85.9628 131.061 85.8906 130.886C85.8184 130.712 85.7125 130.554 85.5791 130.42C85.4456 130.287 85.2872 130.181 85.1128 130.109C84.9385 130.037 84.7517 130 84.563 130" fill="#444444"/>
<path d="M43 130C39.47 130 39.027 130.015 37.64 130.078C36.257 130.141 35.312 130.362 34.485 130.683C33.6175 131.009 32.8316 131.521 32.182 132.182C31.5206 132.832 31.0087 133.617 30.682 134.485C30.362 135.312 30.143 136.257 30.079 137.64C30.015 139.027 30 139.47 30 143C30 146.53 30.015 146.973 30.078 148.36C30.141 149.743 30.362 150.688 30.683 151.515C31.015 152.37 31.459 153.095 32.182 153.818C32.831 154.48 33.6167 154.991 34.484 155.318C35.312 155.639 36.257 155.858 37.64 155.922C39.027 155.985 39.47 156 43 156C46.53 156 46.973 155.985 48.36 155.922C49.743 155.859 50.688 155.638 51.515 155.317C52.3827 154.991 53.1687 154.479 53.818 153.817C54.4793 153.168 54.9912 152.383 55.318 151.516C55.639 150.688 55.858 149.743 55.922 148.36C55.985 146.973 56 146.53 56 143C56 139.47 55.985 139.027 55.922 137.64C55.859 136.257 55.638 135.312 55.317 134.485C54.9908 133.617 54.4792 132.831 53.818 132.182C53.1688 131.521 52.3833 131.009 51.516 130.682C50.688 130.361 49.743 130.142 48.36 130.078C46.973 130.015 46.53 130 43 130ZM43 132.342C46.471 132.342 46.882 132.355 48.253 132.418C49.521 132.476 50.209 132.688 50.667 132.866C51.2315 133.075 51.7423 133.407 52.162 133.838C52.617 134.293 52.898 134.726 53.134 135.333C53.313 135.791 53.524 136.479 53.582 137.747C53.645 139.117 53.658 139.529 53.658 143C53.658 146.471 53.645 146.882 53.582 148.253C53.524 149.521 53.312 150.209 53.134 150.667C52.9256 151.232 52.5935 151.742 52.162 152.162C51.7426 152.594 51.2317 152.926 50.667 153.134C50.209 153.312 49.521 153.524 48.253 153.582C46.883 153.645 46.472 153.658 43 153.658C39.528 153.658 39.118 153.645 37.747 153.582C36.479 153.524 35.791 153.312 35.333 153.134C34.7684 152.926 34.2576 152.593 33.838 152.162C33.4063 151.743 33.0742 151.232 32.866 150.667C32.687 150.209 32.476 149.521 32.418 148.253C32.355 146.883 32.342 146.471 32.342 143C32.342 139.529 32.355 139.118 32.418 137.747C32.476 136.479 32.688 135.791 32.866 135.333C33.0746 134.768 33.4067 134.258 33.838 133.838C34.2574 133.406 34.7683 133.074 35.333 132.866C35.791 132.687 36.479 132.476 37.747 132.418C39.117 132.355 39.529 132.342 43 132.342Z" fill="#444444"/>
<path d="M43.0002 147.384C41.8509 147.384 40.7487 146.927 39.936 146.115C39.1233 145.302 38.6667 144.2 38.6667 143.051C38.6667 141.901 39.1233 140.799 39.936 139.986C40.7487 139.174 41.8509 138.717 43.0002 138.717C44.1495 138.717 45.2518 139.174 46.0645 139.986C46.8772 140.799 47.3337 141.901 47.3337 143.051C47.3337 144.2 46.8772 145.302 46.0645 146.115C45.2518 146.927 44.1495 147.384 43.0002 147.384ZM43.0002 136.375C41.2296 136.375 39.5316 137.078 38.2796 138.33C37.0276 139.582 36.3242 141.28 36.3242 143.051C36.3242 144.822 37.0276 146.52 38.2796 147.772C39.5316 149.024 41.2296 149.727 43.0002 149.727C44.7708 149.727 46.4689 149.024 47.7209 147.772C48.9729 146.52 49.6762 144.822 49.6762 143.051C49.6762 141.28 48.9729 139.582 47.7209 138.33C46.4689 137.078 44.7708 136.375 43.0002 136.375ZM51.5002 136.111C51.5002 136.525 51.3359 136.922 51.0433 137.214C50.7507 137.507 50.354 137.671 49.9402 137.671C49.5265 137.671 49.1297 137.507 48.8371 137.214C48.5446 136.922 48.3802 136.525 48.3802 136.111C48.3802 135.697 48.5446 135.3 48.8371 135.008C49.1297 134.715 49.5265 134.551 49.9402 134.551C50.354 134.551 50.7507 134.715 51.0433 135.008C51.3359 135.3 51.5002 135.697 51.5002 136.111" fill="#444444"/>
<path fill-rule="evenodd" clip-rule="evenodd" d="M24.985 156H1.015C0.455 156 0 155.545 0 154.985V131.015C0 130.455 0.455 130 1.015 130H24.985C25.545 130 26 130.455 26 131.015V154.985C26 155.545 25.545 156 24.985 156ZM15.056 137.008V143.093L10.934 137.008H6.5V149.019H10.943V142.985L15.08 149.019H19.5V137.008H15.057H15.056Z" fill="#444444"/>
</g>
</g>
<defs>
<clipPath id="clip0_280_62">
<rect width="300" height="300" fill="white"/>
</clipPath>
</defs>
</svg>
