<svg width="178" height="27" viewBox="0 0 178 27" fill="none" xmlns="http://www.w3.org/2000/svg">
<path d="M8.74219 26.8203C7.85677 26.8203 6.97135 26.6641 6.08594 26.3516C5.22656 26.0391 4.39323 25.5833 3.58594 24.9844C2.77865 24.3594 2.07552 23.5391 1.47656 22.5234C0.877604 21.5078 0.552083 20.2969 0.5 18.8906V4.78906C0.5 4.0599 0.760417 3.46094 1.28125 2.99219C1.82812 2.4974 2.46615 2.25 3.19531 2.25C4.75781 2.38021 5.60417 3.22656 5.73438 4.78906V18.5781C5.76042 19.2031 5.89062 19.737 6.125 20.1797C6.35938 20.5964 6.61979 20.9349 6.90625 21.1953C7.19271 21.4297 7.47917 21.612 7.76562 21.7422C8.07812 21.8464 8.39062 21.8984 8.70312 21.8984C9.01562 21.8984 9.32812 21.8464 9.64062 21.7422C9.95312 21.612 10.2526 21.4297 10.5391 21.1953C10.8255 20.9349 11.0859 20.5964 11.3203 20.1797C11.5547 19.737 11.6719 19.2031 11.6719 18.5781V4.78906C11.6719 4.0599 11.9323 3.46094 12.4531 2.99219C13 2.4974 13.638 2.25 14.3672 2.25C15.9297 2.38021 16.7891 3.22656 16.9453 4.78906V18.5781C16.9714 19.2031 17.1016 19.724 17.3359 20.1406C17.5703 20.5833 17.8307 20.9349 18.1172 21.1953C18.4036 21.4297 18.6901 21.612 18.9766 21.7422C19.2891 21.8464 19.6016 21.8984 19.9141 21.8984C20.2266 21.8984 20.5391 21.8464 20.8516 21.7422C21.1641 21.612 21.4635 21.4297 21.75 21.1953C22.0365 20.9349 22.2969 20.5964 22.5312 20.1797C22.7656 19.737 22.8828 19.2031 22.8828 18.5781V4.78906C22.8828 4.0599 23.1432 3.46094 23.6641 2.99219C24.2109 2.4974 24.849 2.25 25.5781 2.25C27.1406 2.38021 28 3.22656 28.1562 4.78906V18.8906C28.1562 20.2969 27.8438 21.5078 27.2188 22.5234C26.6198 23.5391 25.9167 24.3594 25.1094 24.9844C24.3281 25.5833 23.4948 26.0391 22.6094 26.3516C21.75 26.6641 20.8646 26.8203 19.9531 26.8203C19.0677 26.8203 18.1823 26.6641 17.2969 26.3516C16.4375 26.0391 15.6042 25.5703 14.7969 24.9453C14.6406 24.8411 14.4974 24.724 14.3672 24.5938C14.2109 24.724 14.0677 24.8411 13.9375 24.9453C13.1302 25.5703 12.2839 26.0391 11.3984 26.3516C10.5391 26.6641 9.65365 26.8203 8.74219 26.8203ZM37.2969 26.5469C36.2552 26.5469 35.3828 26.1823 34.6797 25.4531C34.0026 24.724 33.6641 23.8125 33.6641 22.7188C33.6641 21.625 34.0026 20.7135 34.6797 19.9844C35.3828 19.2552 36.2552 18.8906 37.2969 18.8906C38.3385 18.8906 39.2109 19.2552 39.9141 19.9844C40.6172 20.7135 40.9688 21.625 40.9688 22.7188C40.9688 23.8125 40.6172 24.724 39.9141 25.4531C39.2109 26.1823 38.3385 26.5469 37.2969 26.5469ZM51.5156 23.8516C51.3594 25.4141 50.5 26.2604 48.9375 26.3906C48.2083 26.3906 47.5703 26.1562 47.0234 25.6875C46.5026 25.1927 46.2422 24.5807 46.2422 23.8516V5.41406C46.2682 4.6849 46.5417 4.08594 47.0625 3.61719C47.5833 3.1224 48.2083 2.875 48.9375 2.875H65.3438C67.6354 2.95312 69.3672 3.46094 70.5391 4.39844C71.7109 5.3099 72.5573 6.35156 73.0781 7.52344C73.599 8.69531 73.8594 9.88021 73.8594 11.0781C73.8594 12.3281 73.599 13.5391 73.0781 14.7109C72.5833 15.8828 71.737 16.9375 70.5391 17.875C69.3672 18.7865 67.8698 19.2292 66.0469 19.2031H56.2031C55.474 19.2031 54.862 18.9427 54.3672 18.4219C53.8464 17.9271 53.5859 17.3151 53.5859 16.5859C53.5859 15.8568 53.8333 15.2448 54.3281 14.75C54.849 14.2292 55.474 13.9688 56.2031 13.9688H66.2812C66.776 13.9688 67.1797 13.8125 67.4922 13.5C67.8307 13.1615 68.0781 12.7839 68.2344 12.3672C68.3906 11.9245 68.4688 11.4818 68.4688 11.0391C68.4688 10.6224 68.3906 10.2057 68.2344 9.78906C68.0781 9.34635 67.8307 8.96875 67.4922 8.65625C67.1797 8.31771 66.776 8.13542 66.2812 8.10938H52.5312C51.8542 8.13542 51.5156 8.47396 51.5156 9.125V23.8516ZM86.0859 25.9219C83.7943 25.8438 82.0625 25.3099 80.8906 24.3203C79.7188 23.3047 78.8724 22.1719 78.3516 20.9219C77.8307 19.6458 77.5703 18.3568 77.5703 17.0547C77.5703 15.7005 77.8177 14.3984 78.3125 13.1484C78.8333 11.8724 79.6797 10.7396 80.8516 9.75C82.0495 8.73438 83.5599 8.21354 85.3828 8.1875H98.0391C99.862 8.21354 101.359 8.73438 102.531 9.75C103.729 10.7396 104.576 11.8724 105.07 13.1484C105.591 14.3984 105.852 15.7005 105.852 17.0547C105.852 18.3568 105.591 19.6458 105.07 20.9219C104.549 22.1719 103.703 23.3047 102.531 24.3203C101.359 25.3099 99.6276 25.8438 97.3359 25.9219H86.0859ZM85.2266 13.4219C84.7318 13.4219 84.3021 13.6302 83.9375 14.0469C83.5729 14.4375 83.2995 14.9062 83.1172 15.4531C82.9609 15.974 82.8828 16.4948 82.8828 17.0156C82.8828 17.5625 82.9609 18.1094 83.1172 18.6562C83.2995 19.1771 83.5729 19.6458 83.9375 20.0625C84.3021 20.4531 84.7318 20.6615 85.2266 20.6875H98.1953C98.6901 20.6615 99.1198 20.4531 99.4844 20.0625C99.849 19.6458 100.109 19.1771 100.266 18.6562C100.448 18.1094 100.539 17.5625 100.539 17.0156C100.539 16.4948 100.448 15.974 100.266 15.4531C100.109 14.9062 99.849 14.4375 99.4844 14.0469C99.1198 13.6302 98.6901 13.4219 98.1953 13.4219H85.2266ZM113.039 7.79688C113.742 7.82292 114.341 8.08333 114.836 8.57812C115.331 9.04688 115.591 9.63281 115.617 10.3359V23.8516C115.461 25.4141 114.602 26.2604 113.039 26.3906C112.31 26.3906 111.672 26.1562 111.125 25.6875C110.604 25.1927 110.344 24.5807 110.344 23.8516V10.3359C110.37 9.60677 110.643 9.00781 111.164 8.53906C111.685 8.04427 112.31 7.79688 113.039 7.79688ZM109.758 2.71875C109.758 1.98958 110.07 1.36458 110.695 0.84375C111.32 0.322917 112.076 0.0625 112.961 0.0625C113.846 0.0625 114.602 0.322917 115.227 0.84375C115.852 1.36458 116.164 1.98958 116.164 2.71875C116.164 3.47396 115.852 4.11198 115.227 4.63281C114.602 5.15365 113.846 5.41406 112.961 5.41406C112.076 5.41406 111.32 5.15365 110.695 4.63281C110.07 4.11198 109.758 3.47396 109.758 2.71875ZM132.844 7.60156C134.198 7.60156 135.526 7.75781 136.828 8.07031C138.156 8.38281 139.419 8.85156 140.617 9.47656C141.815 10.0755 142.87 10.8828 143.781 11.8984C144.719 12.9141 145.227 14.125 145.305 15.5312V17.1719V23.8516C145.148 25.4141 144.289 26.2604 142.727 26.3906C141.997 26.3906 141.359 26.1562 140.812 25.6875C140.292 25.1927 140.031 24.5807 140.031 23.8516V22.1328V16.7422C139.979 15.9349 139.667 15.2708 139.094 14.75C138.547 14.2031 137.922 13.7734 137.219 13.4609C136.542 13.1484 135.826 12.9141 135.07 12.7578C134.341 12.6016 133.599 12.5234 132.844 12.5234C132.089 12.5234 131.333 12.6016 130.578 12.7578C129.849 12.9141 129.133 13.1484 128.43 13.4609C127.753 13.7734 127.128 14.2031 126.555 14.75C126.008 15.2708 125.708 15.9349 125.656 16.7422V22.1328V23.8516C125.526 25.4141 124.68 26.2604 123.117 26.3906C122.388 26.3906 121.75 26.1562 121.203 25.6875C120.682 25.1927 120.422 24.5807 120.422 23.8516V17.1719V15.5312C120.5 14.125 120.995 12.9141 121.906 11.8984C122.818 10.8828 123.872 10.0755 125.07 9.47656C126.268 8.85156 127.518 8.38281 128.82 8.07031C130.148 7.75781 131.49 7.60156 132.844 7.60156ZM158.742 2.25C159.471 2.25 160.096 2.4974 160.617 2.99219C161.138 3.46094 161.411 4.0599 161.438 4.78906V8.1875H174.719C175.448 8.1875 176.073 8.4349 176.594 8.92969C177.089 9.45052 177.336 10.0755 177.336 10.8047C177.336 11.5339 177.076 12.1589 176.555 12.6797C176.06 13.1745 175.448 13.4219 174.719 13.4219H161.438V14.2031C161.411 15.2708 161.477 16.2604 161.633 17.1719C161.815 18.0573 162.232 18.8516 162.883 19.5547C163.534 20.2578 164.354 20.6354 165.344 20.6875H174.875C175.604 20.7135 176.203 20.987 176.672 21.5078C177.167 22.0286 177.414 22.6536 177.414 23.3828C177.388 24.0859 177.128 24.6849 176.633 25.1797C176.164 25.6484 175.578 25.8958 174.875 25.9219H164.016C162.193 25.8177 160.682 25.2057 159.484 24.0859C158.312 22.9401 157.466 21.5469 156.945 19.9062C156.451 18.2656 156.19 16.5208 156.164 14.6719V13.4219H151.672C150.943 13.4219 150.331 13.1615 149.836 12.6406C149.315 12.1458 149.055 11.5339 149.055 10.8047C149.055 10.0755 149.302 9.46354 149.797 8.96875C150.318 8.44792 150.943 8.1875 151.672 8.1875H156.164V4.78906C156.19 4.08594 156.451 3.5 156.945 3.03125C157.44 2.53646 158.039 2.27604 158.742 2.25Z" fill="#412C86"/>
</svg>













